<?xml version="1.0" encoding="UTF-8"?>
<svg xmlns="http://www.w3.org/2000/svg" viewBox="0 0 566.93 297.64">
  <defs>
    <style>
      .cls-1 {
        fill: #1d1d1b;
      }

      .cls-2 {
        fill: #c6c6c6;
      }
    </style>
  </defs>
  <g id="Calque_4" data-name="Calque 4">
    <g>
      <path class="cls-2" d="M271.19,49.95c0,9.83,0,19.66,0,29.49s0,19.66,0,29.49c0,9.83,0,19.66,0,29.49s0,19.66,0,29.49,0,19.74,0,29.61v3.62c0,.48.75.48.75,0,0-9.83,0-19.66,0-29.49,0-9.83,0-19.66,0-29.49,0-9.83,0-19.66,0-29.49,0-9.83,0-19.66,0-29.49s0-19.74,0-29.61v-3.62c0-.48-.75-.48-.75,0h0Z"/>
      <path class="cls-2" d="M265.69,50.92c0,9.69,0,19.39,0,29.08s0,19.39,0,29.08,0,19.39,0,29.08,0,19.39,0,29.08,0,19.39,0,29.08v3.62c0,.48.75.48.75,0,0-9.69,0-19.39,0-29.08s0-19.39,0-29.08,0-19.39,0-29.08,0-19.39,0-29.08c0-9.69,0-19.39,0-29.08v-3.62c0-.48-.75-.48-.75,0h0Z"/>
      <path class="cls-2" d="M275.71,52.21c0,16.17,0,32.33,0,48.5s0,32.33,0,48.5c0,9.08,0,18.17,0,27.25,0,.48.75.48.75,0,0-16.17,0-32.33,0-48.5s0-32.33,0-48.5c0-9.08,0-18.17,0-27.25,0-.48-.75-.48-.75,0h0Z"/>
      <path class="cls-2" d="M300.56,45.95c0,12.55,0,25.1,0,37.65,0,12.47,0,24.94,0,37.41,0,7.05,0,14.1,0,21.15,0,.48.75.48.75,0,0-12.54,0-25.07,0-37.61,0-12.47,0-24.94,0-37.41,0-7.07,0-14.13,0-21.2,0-.48-.75-.48-.75,0h0Z"/>
      <path class="cls-2" d="M304.39,48.38c0,11.91,0,23.83,0,35.74s0,23.91,0,35.86c0,6.7,0,13.41,0,20.11,0,.48.75.48.75,0,0-11.91,0-23.82,0-35.73s0-23.91,0-35.86c0-6.71,0-13.41,0-20.12,0-.48-.75-.48-.75,0h0Z"/>
      <path class="cls-2" d="M339.29,43.37c0,12.42,0,24.83,0,37.25s0,24.66,0,37c0,6.97,0,13.94,0,20.91,0,.48.75.48.75,0,0-12.39,0-24.77,0-37.16,0-12.33,0-24.66,0-37,0-7,0-14,0-21,0-.48-.75-.48-.75,0h0Z"/>
      <path class="cls-2" d="M378.8,37.87c0,11.44,0,22.88,0,34.32,0,11.4,0,22.8,0,34.2s0,22.88,0,34.32c0,11.4,0,22.8,0,34.2,0,11.39,0,22.78,0,34.18,0,1.41,0,2.83,0,4.24,0,.48.75.48.75,0,0-11.43,0-22.86,0-34.3,0-11.4,0-22.8,0-34.2,0-11.44,0-22.88,0-34.32s0-22.8,0-34.2,0-22.8,0-34.2c0-1.41,0-2.83,0-4.24,0-.48-.75-.48-.75,0h0Z"/>
      <path class="cls-2" d="M336.04,40.56c0,12.55,0,25.11,0,37.66,0,12.55,0,25.11,0,37.66,0,7.05,0,14.11,0,21.16,0,.48.75.48.75,0,0-12.54,0-25.08,0-37.62,0-12.55,0-25.11,0-37.66,0-7.07,0-14.13,0-21.2,0-.48-.75-.48-.75,0h0Z"/>
      <path class="cls-2" d="M376.2,34.79c0,9.83,0,19.65,0,29.48s0,19.65,0,29.48,0,19.57,0,29.35,0,19.65,0,29.48,0,19.52,0,29.28v3.59c0,.48.75.48.75,0,0-9.75,0-19.5,0-29.26,0-9.83,0-19.65,0-29.48s0-19.57,0-29.35c0-9.83,0-19.65,0-29.48s0-19.65,0-29.48v-3.62c0-.48-.75-.48-.75,0h0Z"/>
      <path class="cls-2" d="M255.51,41.55c0,10.96,0,21.91,0,32.87,0,10.96,0,21.91,0,32.87s0,22,0,32.99,0,21.83,0,32.74,0,22,0,32.99v4c0,.48.75.48.75,0,0-10.96,0-21.91,0-32.87,0-10.96,0-21.91,0-32.87,0-11,0-22,0-32.99s0-21.83,0-32.74c0-11,0-22,0-32.99v-4c0-.48-.75-.48-.75,0h0Z"/>
      <path class="cls-2" d="M248.73,42.22c0,10.82,0,21.64,0,32.46s0,21.56,0,32.33c0,10.82,0,21.64,0,32.46,0,10.78,0,21.56,0,32.33,0,10.82,0,21.64,0,32.46v3.99c0,.48.75.48.75,0,0-10.82,0-21.64,0-32.46s0-21.56,0-32.33v-32.46c0-10.78,0-21.56,0-32.33s0-21.64,0-32.46v-3.99c0-.48-.75-.48-.75,0h0Z"/>
      <path class="cls-2" d="M226.37,23.02c0,13.32,0,26.65,0,39.97s0,26.56,0,39.85,0,26.56,0,39.85,0,26.65,0,39.97,0,26.48,0,39.72c0,1.67,0,3.33,0,5,0,.48.75.48.75,0,0-13.32,0-26.65,0-39.97s0-26.56,0-39.85,0-26.56,0-39.85,0-26.65,0-39.97,0-26.48,0-39.72c0-1.67,0-3.33,0-5,0-.48-.75-.48-.75,0h0Z"/>
      <path class="cls-2" d="M423.5,28.05c0,12.75,0,25.5,0,38.24s0,25.5,0,38.24,0,25.41,0,38.12c0,12.75,0,25.5,0,38.24,0,12.71,0,25.41,0,38.12,0,1.58,0,3.17,0,4.75,0,.48.75.48.75,0,0-12.75,0-25.5,0-38.24s0-25.5,0-38.24c0-12.71,0-25.41,0-38.12s0-25.5,0-38.24,0-25.41,0-38.12c0-1.58,0-3.17,0-4.75,0-.48-.75-.48-.75,0h0Z"/>
      <path class="cls-2" d="M423.48,27.69c-9.89,1.42-19.78,2.84-29.67,4.26s-19.78,2.84-29.67,4.26-19.78,2.84-29.67,4.26c-9.89,1.42-19.78,2.84-29.67,4.26s-19.78,2.84-29.67,4.26l-3.71.53c-.48.07-.27.79.2.72,9.89-1.42,19.78-2.84,29.67-4.26s19.78-2.84,29.67-4.26c9.89-1.42,19.78-2.84,29.67-4.26s19.78-2.84,29.67-4.26,19.78-2.84,29.67-4.26l3.71-.53c.48-.07.27-.79-.2-.72h0Z"/>
      <path class="cls-2" d="M300.64,48.17c-8.24,1.18-16.48,2.37-24.72,3.55-.48.07-.27.79.2.72,8.24-1.18,16.48-2.37,24.72-3.55.48-.07.27-.79-.2-.72h0Z"/>
      <path class="cls-2" d="M336.22,43.07c-10.51,1.51-21.02,3.02-31.52,4.52-.48.07-.27.79.2.72,10.51-1.51,21.02-3.02,31.52-4.52.48-.07.27-.79-.2-.72h0Z"/>
      <path class="cls-2" d="M376.33,37.31c-9.57,1.37-19.13,2.75-28.7,4.12-2.72.39-5.44.78-8.16,1.17-.48.07-.27.79.2.72,9.57-1.37,19.13-2.75,28.7-4.12,2.72-.39,5.44-.78,8.16-1.17.48-.07.27-.79-.2-.72h0Z"/>
      <path class="cls-2" d="M423.7,30.51c-11.62,1.67-23.24,3.33-34.85,5-3.3.47-6.59.95-9.89,1.42-.48.07-.27.79.2.72,11.62-1.67,23.24-3.33,34.85-5,3.3-.47,6.59-.95,9.89-1.42.48-.07.27-.79-.2-.72h0Z"/>
      <path class="cls-2" d="M423.68,223.49c-11.11-1.59-22.22-3.19-33.33-4.78-3.13-.45-6.26-.9-9.38-1.35-.47-.07-.68.65-.2.72,11.11,1.59,22.22,3.19,33.33,4.78,3.13.45,6.26.9,9.38,1.35.47.07.68-.65.2-.72h0Z"/>
      <path class="cls-2" d="M423.68,220.47c-11.11-1.59-22.22-3.19-33.33-4.78-3.13-.45-6.26-.9-9.38-1.35-.47-.07-.68.65-.2.72,11.11,1.59,22.22,3.19,33.33,4.78,3.13.45,6.26.9,9.38,1.35.47.07.68-.65.2-.72h0Z"/>
      <path class="cls-2" d="M219.29,24.62c0,13.16,0,26.32,0,39.49s0,26.16,0,39.24c0,13.16,0,26.32,0,39.49,0,13.08,0,26.16,0,39.24,0,13.12,0,26.24,0,39.36,0,1.62,0,3.25,0,4.87,0,.48.75.48.75,0,0-13.16,0-26.32,0-39.49s0-26.16,0-39.24c0-13.16,0-26.32,0-39.49s0-26.16,0-39.24c0-13.12,0-26.24,0-39.36,0-1.62,0-3.25,0-4.87,0-.48-.75-.48-.75,0h0Z"/>
      <path class="cls-2" d="M271.38,200.81c-11.71,6.83-23.43,13.62-35.09,20.51-3.3,1.95-6.6,3.91-9.89,5.88-.41.25-.04.9.38.65,11.55-6.92,23.18-13.7,34.82-20.48,3.39-1.97,6.78-3.94,10.16-5.92.42-.24.04-.89-.38-.65h0Z"/>
      <path class="cls-2" d="M250.22,208.01c-7.94,4.25-15.87,8.51-23.77,12.84-.42.23-.05.88.38.65,7.9-4.33,15.83-8.59,23.77-12.84.43-.23.05-.88-.38-.65h0Z"/>
      <path class="cls-2" d="M265.78,199.69c-3.36,1.8-6.73,3.59-10.09,5.39-.43.23-.05.88.38.65,3.36-1.8,6.73-3.59,10.09-5.39.43-.23.05-.88-.38-.65h0Z"/>
      <path class="cls-2" d="M271.36,49.23c-4.7-2.52-9.27-5.3-13.85-8.01-6.77-4-13.52-8.03-20.26-12.08-3.35-2.01-6.69-4.03-10.02-6.06-.41-.25-.79.4-.38.65,6.31,3.84,12.64,7.64,18.97,11.42s12.53,7.47,18.83,11.13c2.1,1.22,4.19,2.45,6.33,3.59.43.23.8-.42.38-.65h0Z"/>
      <path class="cls-2" d="M250.24,41.75c-6.1-3.45-12.18-6.93-18.26-10.42-1.64-.95-3.29-1.89-4.93-2.84-.42-.24-.8.41-.38.65,6.03,3.48,12.07,6.94,18.12,10.39,1.69.96,3.38,1.92,5.07,2.88.42.24.8-.41.38-.65h0Z"/>
      <path class="cls-2" d="M266.29,50.64c-2.44-1.25-4.83-2.6-7.23-3.94-.98-.55-1.97-1.1-2.95-1.65-.42-.24-.8.41-.38.65,2.89,1.62,5.78,3.25,8.71,4.81.49.26.98.52,1.47.77.43.22.81-.43.38-.65h0Z"/>
      <path class="cls-2" d="M226.69,227.06c-2.27-.39-4.54-.74-6.82-1.05-.2-.03-.4.05-.46.26-.05.18.06.43.26.46,2.28.31,4.55.66,6.82,1.05.2.03.4-.05.46-.26.05-.18-.06-.43-.26-.46h0Z"/>
      <path class="cls-2" d="M226.68,22.64c-2.33.72-4.71,1.27-7.11,1.63-.2.03-.31.28-.26.46.06.21.26.29.46.26,2.41-.36,4.79-.9,7.11-1.63.46-.14.26-.87-.2-.72h0Z"/>
      <path class="cls-2" d="M255.78,40.85c-2.18.63-4.42,1.03-6.68,1.18-.2.01-.38.16-.38.38,0,.19.17.39.38.38,2.33-.16,4.64-.56,6.88-1.21.46-.13.27-.86-.2-.72h0Z"/>
      <path class="cls-2" d="M271.07,49.91c-1.7.17-3.39.4-5.07.69-.2.03-.31.28-.26.46.06.21.26.3.46.26,1.62-.28,3.24-.51,4.87-.67.19-.02.38-.16.38-.38,0-.19-.17-.4-.38-.38h0Z"/>
      <path class="cls-2" d="M255.98,209.2c-.52-.06-1.03-.26-1.53-.39s-1.04-.25-1.57-.36c-1.07-.22-2.16-.4-3.24-.57-.2-.03-.4.05-.46.26-.05.18.06.43.26.46,1.1.18,2.2.36,3.3.58.55.11,1.09.24,1.63.38s1.06.32,1.61.39c.2.02.38-.19.38-.38,0-.22-.17-.35-.38-.38h0Z"/>
      <path class="cls-2" d="M271.71,200.69c-1.92-.04-3.83-.39-5.64-1.03-.19-.07-.41.08-.46.26-.06.21.07.39.26.46,1.87.66,3.85,1.02,5.84,1.06.48,0,.48-.74,0-.75h0Z"/>
      <path class="cls-2" d="M276.28,51.88c-.73-.23-1.33-.47-1.99-.8s-1.26-.75-1.97-.92c-.19-.05-.42.06-.46.26s.06.41.26.46c.09.02.18.05.27.08.04.01.08.03.12.04.01,0,.12.05.06.02.16.07.32.15.47.24.31.17.62.35.95.5.68.33,1.38.62,2.11.84.19.06.42-.07.46-.26.05-.2-.06-.4-.26-.46h0Z"/>
      <path class="cls-2" d="M304.84,47.86s-.04,0-.06,0c.05,0,.05,0,0,0-.03,0-.06-.01-.1-.02-.07-.01-.15-.03-.22-.05-.15-.04-.29-.08-.44-.13-.13-.05-.27-.1-.4-.15-.04-.02-.08-.03-.12-.05-.07-.03.05.02-.03-.01-.07-.03-.14-.06-.21-.09-.59-.25-1.18-.51-1.77-.76-.18-.08-.41-.06-.51.13-.09.16-.06.43.13.51.61.26,1.22.53,1.83.79s1.23.51,1.9.59c.2.02.38-.19.38-.38,0-.22-.17-.35-.38-.38h0Z"/>
      <path class="cls-2" d="M339.92,43.18c-.91-.71-1.83-1.42-2.74-2.13-.08-.06-.16-.11-.27-.11-.09,0-.2.04-.27.11s-.11.17-.11.27c0,.09.03.21.11.27.91.71,1.83,1.42,2.74,2.13.08.06.16.11.27.11.09,0,.2-.04.27-.11s.11-.17.11-.27c0-.09-.03-.21-.11-.27h0Z"/>
      <path class="cls-2" d="M378.92,38.07h0s-.03-.05-.04-.08h0s0-.06-.01-.09h0c.02-.06.03-.12.05-.18h0s.04-.04.06-.07h0s.05-.03.08-.05h0s.06-.02.09-.03c0,0-.01,0-.02,0h.1s-.02-.01-.03-.01h.1s-.02,0-.03,0l.09.04s-.01,0-.02-.01l.08.06c-.55-.47-1.06-.99-1.53-1.55-.13-.16-.26-.32-.39-.48l.06.08s-.07-.09-.11-.14c-.06-.08-.12-.14-.22-.17-.09-.02-.21-.01-.29.04s-.15.13-.17.22-.02.21.04.29c.57.75,1.19,1.45,1.89,2.07.12.11.25.25.41.28.15.03.31,0,.42-.11.12-.12.16-.34.06-.49-.06-.08-.12-.14-.22-.17-.09-.02-.21-.01-.29.04s-.15.13-.17.22-.02.21.04.29h0Z"/>
      <path class="cls-2" d="M423.76,28.42c3.92,3.52,7.63,7.3,11.34,11.04.73.73,1.46,1.47,2.18,2.21.38.38.74.85,1.17,1.19.26.2.03-.15,0-.1-.03.05,0,.2,0,.26l.02,3.11c.01,2.03.02,4.06.03,6.08.01,2.87.03,5.73.04,8.6.02,3.51.03,7.03.05,10.54.02,4.01.04,8.01.06,12.02.02,4.35.04,8.71.06,13.06s.04,8.99.07,13.48c.02,4.49.04,8.98.07,13.47s.04,8.67.06,13.01c.02,3.98.04,7.96.06,11.94.02,3.48.03,6.95.05,10.43.01,2.82.03,5.64.04,8.46,0,1.97.02,3.94.03,5.91,0,.97,0,1.94.01,2.91,0,.07,0,.14,0,.2.01-.13,0-.03-.04.08-.29.77-.51,1.57-.76,2.35-1.17,3.62-2.35,7.24-3.53,10.86-1.62,4.96-3.24,9.92-4.87,14.88-1.53,4.65-3.07,9.29-4.64,13.92-.55,1.61-1.1,3.23-1.67,4.83-.16.46.56.65.72.2,1.36-3.85,2.65-7.73,3.94-11.61,1.67-5.02,3.32-10.05,4.97-15.09,1.47-4.49,2.93-8.97,4.39-13.46.72-2.23,1.58-4.47,2.18-6.74.13-.48.05-1.03.04-1.51l-.02-4.53c-.01-2.43-.02-4.87-.04-7.3-.02-3.17-.03-6.35-.05-9.52-.02-3.77-.04-7.55-.06-11.32-.02-4.2-.04-8.39-.06-12.59l-.07-13.34c-.02-4.53-.04-9.07-.07-13.6s-.04-8.9-.07-13.35c-.02-4.2-.04-8.4-.06-12.6-.02-3.78-.04-7.56-.06-11.34-.02-3.19-.03-6.39-.05-9.58l-.04-7.31-.02-4.54c0-.56.15-1.29-.26-1.72-3.01-3.19-6.17-6.25-9.3-9.32-1.76-1.73-3.53-3.45-5.37-5.09-.36-.32-.89.21-.53.53h0Z"/>
      <path class="cls-2" d="M-.02,62.59c8.63,1.42,17.27,2.8,25.91,4.14,9.91,1.55,19.82,3.06,29.74,4.54s20.7,3.07,31.06,4.57,20.04,2.87,30.06,4.25c8.89,1.23,17.79,2.43,26.69,3.58.98.13,1.96.25,2.94.38l-.38-.38c0,11.17.04,22.35.08,33.52.05,11.2.1,22.4.13,33.6.02,6.26.03,12.52.03,18.78l.28-.36c-9.01,2.09-18.01,4.18-27.02,6.27-9.75,2.26-19.49,4.53-29.24,6.8s-19.96,4.67-29.94,7.02-19.58,4.64-29.36,7c-9.17,2.21-18.33,4.44-27.48,6.72-1.06.26-2.11.53-3.17.79-.47.12-.27.84.2.72,9.04-2.26,18.08-4.47,27.14-6.66,9.76-2.36,19.53-4.69,29.3-7s19.96-4.7,29.94-7.04,19.54-4.55,29.31-6.82c9.12-2.12,18.25-4.23,27.37-6.35,1.05-.24,2.1-.49,3.15-.73.16-.04.28-.2.28-.36,0-11.17-.04-22.35-.08-33.52s-.1-22.4-.13-33.6c-.02-6.26-.03-12.52-.03-18.78,0-.22-.17-.35-.38-.38-8.73-1.11-17.46-2.28-26.18-3.48-9.94-1.36-19.87-2.76-29.79-4.19-10.36-1.49-20.71-3.01-31.06-4.55-9.98-1.49-19.96-3-29.93-4.55-8.78-1.36-17.56-2.75-26.33-4.18-.97-.16-1.93-.32-2.9-.48-.47-.08-.68.64-.2.72H-.02Z"/>
      <path class="cls-2" d="M219.85,96.83c-9.57.55-19.13,1.19-28.69,1.86s-19.02,1.35-28.53,1.97c-5.43.36-10.87.7-16.3,1.01-.48.03-.48.78,0,.75,9.57-.55,19.13-1.19,28.69-1.86s19.02-1.35,28.53-1.97c5.43-.36,10.87-.7,16.3-1.01.48-.03.48-.78,0-.75h0Z"/>
      <path class="cls-2" d="M184.9,108.09c.29,11.68.52,23.35.78,35.03.08,3.37.15,6.73.24,10.1,0,.2.17.37.38.38,8.5.04,17,.16,25.51.23,2.45.02,4.9.04,7.35.05.48,0,.48-.75,0-.75-8.5-.04-17-.16-25.51-.23-2.45-.02-4.9-.04-7.35-.05l.38.38c-.29-11.68-.52-23.35-.78-35.03-.08-3.37-.15-6.73-.24-10.1-.01-.48-.76-.48-.75,0h0Z"/>
      <path class="cls-2" d="M185.26,107.43c-6.44.41-12.88.69-19.33.96-4.69.2-9.39.38-14.08.55-.31.01-.74-.05-.87.3-.09.23-.04.58-.05.82-.03,1.56-.02,3.13,0,4.7.02,5.85.09,11.71.16,17.56.08,6.32.17,12.64.29,18.97.01.59-.03,1.21.04,1.79l.38-.38c-1.7,0-3.41-.02-5.11-.02-.48,0-.48.75,0,.75,1.7,0,3.41.02,5.11.02.18,0,.4-.17.38-.38-.08-.67-.03-1.38-.04-2.05-.02-.79-.03-1.58-.04-2.37-.03-1.68-.06-3.36-.08-5.04-.06-3.71-.11-7.43-.16-11.14-.08-6.36-.15-12.72-.16-19.07,0-.97,0-1.94,0-2.91,0-.27,0-.54.01-.8,0-.08.02-.17.01-.24-.01-.12.01,0-.04.07l-.32.19c2.75-.1,5.5-.2,8.25-.31,5.63-.22,11.27-.46,16.9-.73,2.92-.14,5.84-.3,8.76-.48.48-.03.48-.78,0-.75h0Z"/>
      <path class="cls-2" d="M176.69,108.44c.26,9.53.45,19.06.64,28.59.06,2.89.12,5.77.18,8.66l.38-.38c-8.7,1.01-17.4,2-26.1,2.99-.47.05-.48.8,0,.75,8.7-.98,17.4-1.97,26.1-2.99.2-.02.38-.15.38-.38-.2-9.53-.37-19.06-.6-28.59-.07-2.89-.14-5.77-.22-8.66-.01-.48-.76-.48-.75,0h0Z"/>
      <path class="cls-2" d="M172.3,165.56c0,5.41.02,10.82.04,16.23,0,.51,0,1.02,0,1.52,0,.15.11.33.28.36,3.64.61,7.28,1.21,10.92,1.77,1.28.2,2.55.39,3.83.58.24.03.47-.09.47-.36,0-6.26-.29-12.5-.5-18.75,0-.22-.17-.36-.38-.38-4.77-.45-9.53-.89-14.3-1.35-.48-.05-.48.7,0,.75,4.77.46,9.53.9,14.3,1.35l-.38-.38c.21,6.25.5,12.5.5,18.75l.47-.36c-4.5-.64-8.98-1.39-13.46-2.14-.43-.07-.86-.14-1.29-.21l.28.36c-.02-4.35-.03-8.71-.04-13.06,0-1.56,0-3.12,0-4.69,0-.48-.75-.48-.75,0Z"/>
      <path class="cls-2" d="M187.01,167.44c8.47-1.28,16.92-2.7,25.36-4.15,2.39-.41,4.78-.82,7.16-1.24.47-.08.27-.81-.2-.72-8.44,1.47-16.88,2.92-25.34,4.27-2.39.38-4.79.76-7.18,1.12-.48.07-.27.79.2.72h0Z"/>
      <path class="cls-2" d="M172.68,165.93c6.02-.71,12.01-1.86,17.98-2.9s12.48-2.22,18.73-3.31c3.28-.57,6.57-1.13,9.86-1.65.48-.08.27-.8-.2-.72-12.11,1.91-24.14,4.25-36.23,6.26-3.37.56-6.75,1.17-10.14,1.57-.47.06-.48.81,0,.75h0Z"/>
      <path class="cls-2" d="M187.48,185.97c8.25-1.98,16.51-3.95,24.75-5.98,2.51-.62,5.02-1.24,7.52-1.87.47-.12.27-.84-.2-.72-8.27,2.07-16.55,4.07-24.83,6.06-2.48.6-4.96,1.19-7.45,1.79-.47.11-.27.84.2.72h0Z"/>
    </g>
  </g>
  <g id="Calque_6" data-name="Calque 6">
    <g>
      <path class="cls-1" d="M347.44,219.82c3.49-1.81,6.7-4.13,9.41-6.99,2.85-3.01,5.12-6.53,6.97-10.23,1.98-3.95,3.06-8.11,3.53-12.49.5-4.65.45-9.48-.3-14.1s-2.59-9.39-4.82-13.63c-2.09-3.96-5.03-7.53-8.15-10.72-6.61-6.77-15.1-11.41-24.45-13.03s-19.33-.75-27.87,3.45c-1.17.57-2.3,1.21-3.4,1.89-.41.25-.03.9.38.65,8.16-5.06,17.96-6.7,27.43-5.72,9.3.96,18.1,4.76,25.05,11.04,3.35,3.03,6.4,6.51,8.87,10.29s4.32,8.25,5.51,12.67,1.43,9.08,1.26,13.63-.79,8.81-2.39,12.89c-1.52,3.86-3.75,7.62-6.35,10.84-2.41,2.97-5.29,5.51-8.55,7.51-.81.5-1.65.96-2.49,1.4-.43.22-.05.87.38.65h0Z"/>
      <path class="cls-1" d="M289.5,151.45c-2.87,3.22-5.38,6.87-7.2,10.78-1.82,3.92-2.6,8.22-2.99,12.5-.68,7.52-.5,15.11,2.3,22.21,1.45,3.68,3.34,7.28,5.67,10.48s4.95,5.62,7.84,8.02c5.36,4.44,11.76,7.42,18.58,8.77,4,.79,8.09,1.06,12.16.94,4.6-.14,9.23-.69,13.62-2.09,1.06-.34,2.12-.71,3.16-1.1.45-.17.25-.9-.2-.72-8.08,3.07-16.98,3.87-25.54,2.75-6.93-.91-13.59-3.4-19.25-7.52-2.87-2.09-5.61-4.52-7.95-7.2-2.56-2.94-4.55-6.35-6.21-9.86-1.51-3.19-2.63-6.56-3.22-10.04s-.64-7.33-.46-10.99c.21-4.3.65-8.63,1.97-12.75s3.64-7.89,6.27-11.27c.63-.82,1.3-1.61,1.98-2.38.32-.36-.21-.89-.53-.53h0Z"/>
      <path class="cls-1" d="M295.9,145.64c-.98.72-1.94,1.49-2.85,2.3-.26.23-.51.45-.76.69-.14.13-.15.4,0,.53.15.14.38.14.53,0,.87-.8,1.77-1.57,2.71-2.3,0,0,.05-.04.02-.01s.02-.02.03-.02c.04-.03.07-.05.11-.08.06-.05.12-.09.19-.14.14-.1.28-.21.42-.31.16-.12.25-.33.13-.51-.1-.16-.34-.26-.51-.13h0Z"/>
      <path class="cls-1" d="M342.68,221.94c4.33-1.67,8.65-3.49,12.56-6.01,3.49-2.24,6.52-5.08,8.94-8.45,2.83-3.95,4.96-8.47,6.03-13.22,1.24-5.5,1.46-11.27.96-16.88s-2.43-11.23-4.99-16.4c-2.38-4.8-5.87-9.12-9.66-12.89-3.98-3.95-8.68-7.19-13.84-9.39-5.37-2.3-11.24-3.48-17.08-3.59-3.03-.06-6.07.2-9.05.75-1.5.28-2.98.63-4.44,1.05-1.36.39-2.81.78-4.1,1.37-1.01.46-1.98,1.04-2.95,1.57-1.73.94-3.46,1.9-5.14,2.94-.68.42-1.35.84-1.98,1.32-.38.29,0,.94.38.65,2.78-2.09,6-3.68,9.06-5.31,1.49-.79,3.08-1.29,4.7-1.76,2.87-.84,5.82-1.42,8.8-1.68,11.62-1.02,23.35,2.55,32.3,10.04,4.06,3.4,7.65,7.55,10.49,12.01,1.45,2.28,2.61,4.74,3.64,7.23,1.08,2.63,1.99,5.35,2.56,8.14s.72,5.51.76,8.28-.1,5.62-.46,8.4c-.34,2.59-.89,5.18-1.75,7.65-.79,2.26-1.88,4.44-3.09,6.5-2.1,3.59-4.8,6.78-8.11,9.32-3.44,2.64-7.37,4.57-11.35,6.23-1.13.47-2.27.93-3.42,1.37-.45.17-.25.9.2.72h0Z"/>
      <path class="cls-1" d="M289.06,203.5c.48,0,.48-.75,0-.75s-.48.75,0,.75h0Z"/>
      <path class="cls-1" d="M345.46,216.7c3.2-1.64,6.13-3.76,8.61-6.37,2.62-2.77,4.69-6.01,6.39-9.42,1.83-3.66,2.83-7.5,3.26-11.57.45-4.27.41-8.71-.3-12.96s-2.39-8.62-4.45-12.5c-1.93-3.64-4.65-6.92-7.52-9.85-6.07-6.19-13.85-10.41-22.41-11.88s-18.01-.64-25.91,3.37c-1.07.54-2.11,1.14-3.12,1.79-.41.26-.03.91.38.65,7.48-4.78,16.51-6.37,25.28-5.51,8.59.84,16.74,4.31,23.17,10.11,3.05,2.75,5.83,5.91,8.09,9.35s3.98,7.52,5.08,11.56,1.36,8.39,1.2,12.6-.73,8.14-2.22,11.91c-1.39,3.52-3.42,6.97-5.79,9.92-2.18,2.71-4.8,5.02-7.77,6.84-.76.47-1.54.9-2.34,1.31-.43.22-.05.87.38.65h0Z"/>
      <path class="cls-1" d="M291.9,154.36c-2.59,2.99-4.91,6.39-6.48,10.04s-2.23,7.67-2.55,11.64c-.29,3.62-.4,7.28,0,10.89.37,3.25,1.19,6.41,2.44,9.43,1.38,3.33,3.14,6.6,5.33,9.48,2.07,2.72,4.6,5.06,7.26,7.2,5.05,4.06,11.05,6.69,17.42,7.82,3.74.66,7.55.84,11.34.66,4.3-.2,8.51-.86,12.59-2.24.95-.32,1.89-.67,2.81-1.05.44-.18.25-.91-.2-.72-7.44,3.04-15.63,3.91-23.59,3.02-6.42-.72-12.64-2.88-17.95-6.6-2.66-1.86-5.17-4.06-7.36-6.47-2.4-2.64-4.26-5.7-5.83-8.89-1.45-2.94-2.56-6.04-3.16-9.26s-.69-6.66-.56-10c.16-3.93.51-7.9,1.63-11.68s3.15-7.26,5.5-10.4c.6-.8,1.23-1.58,1.88-2.33.31-.36-.21-.9-.53-.53h0Z"/>
      <path class="cls-1" d="M297.85,148.82c-.88.66-1.73,1.35-2.54,2.09-.23.21-.46.41-.68.63-.14.13-.15.4,0,.53.15.14.38.14.53,0,.77-.73,1.58-1.42,2.41-2.08.06-.05.12-.09.18-.14.03-.02.06-.05.09-.07.01,0,.02-.02.04-.03.04-.03-.05.04,0,0,.12-.09.24-.19.37-.28.08-.06.14-.12.17-.22.02-.09.01-.21-.04-.29-.1-.15-.35-.26-.51-.13h0Z"/>
      <path class="cls-1" d="M288.43,156.32c.27.21.51.45.74.7.06.07.13.14.19.22.03.04.07.06.12.08.04.02.09.03.14.03.05,0,.1,0,.14-.03.05-.02.09-.04.12-.08.07-.07.11-.17.11-.27v-.1c-.03-.06-.06-.12-.11-.17-.22-.26-.45-.51-.71-.73-.07-.06-.15-.12-.22-.18-.03-.04-.07-.06-.12-.08-.04-.02-.09-.03-.14-.03-.05,0-.1,0-.14.03-.05.02-.09.04-.12.08-.07.07-.11.17-.11.27v.1c.03.06.06.12.11.17h0Z"/>
      <path class="cls-1" d="M286.02,160.3c.43.3.87.61,1.3.91.08.05.2.06.29.04s.18-.09.22-.17c.05-.09.07-.19.04-.29l-.04-.09c-.03-.06-.08-.1-.13-.13-.43-.3-.87-.61-1.3-.91-.08-.05-.2-.06-.29-.04s-.18.09-.22.17c-.05.09-.07.19-.04.29l.04.09c.03.06.08.1.13.13h0Z"/>
      <path class="cls-1" d="M283.64,164.34c.37.23.74.46,1.11.69.08.05.2.06.29.04s.18-.09.22-.17c.05-.09.07-.19.04-.29s-.09-.17-.17-.22c-.37-.23-.74-.46-1.11-.69-.08-.05-.2-.06-.29-.04s-.18.09-.22.17c-.05.09-.07.19-.04.29s.09.17.17.22h0Z"/>
      <path class="cls-1" d="M283.09,167.59s.07,0,.11.01h-.1c.25.02.5.08.74.16.05.02.1.02.15,0,.05,0,.1-.02.14-.04.04-.02.08-.06.11-.1.03-.04.06-.08.07-.13v-.1c.01-.07,0-.13-.04-.19l-.06-.08s-.1-.08-.17-.1c-.31-.11-.62-.17-.95-.2-.05,0-.1,0-.14.03-.05.02-.09.04-.12.08-.04.03-.06.07-.08.12-.02.04-.03.09-.03.14,0,.1.04.2.11.27l.08.06c.06.03.12.05.19.05h0Z"/>
      <path class="cls-1" d="M282.22,170.98c.42.06.83.13,1.25.19.05.02.1.02.15,0,.05,0,.1-.02.14-.04.08-.05.15-.13.17-.22.02-.1.02-.2-.04-.29-.05-.08-.13-.16-.22-.17-.42-.06-.83-.13-1.25-.19-.05-.02-.1-.02-.15,0-.05,0-.1.02-.14.04-.08.05-.15.13-.17.22-.02.1-.02.2.04.29.05.08.13.16.22.17h0Z"/>
      <path class="cls-1" d="M282.16,174.94s.04,0,.05,0h-.1c.21-.01.41-.01.62.01h-.1s.09,0,.14,0c.05.02.1.02.15,0,.05,0,.1-.02.14-.04.04-.02.08-.06.11-.1.03-.04.06-.08.07-.13v-.1c.01-.07,0-.13-.04-.19-.05-.08-.13-.15-.22-.17-.17-.03-.34-.05-.51-.06s-.34.02-.51.04c-.05.01-.09.03-.13.07-.04.03-.07.06-.1.11-.03.04-.04.09-.04.14-.01.05,0,.1,0,.15.03.09.09.18.17.22l.09.04c.07.02.13.02.2,0h0Z"/>
      <path class="cls-1" d="M281.47,178.76h1.11c.1,0,.2-.04.27-.11s.11-.17.11-.27-.04-.2-.11-.27-.16-.11-.27-.11h-1.11c-.1,0-.2.04-.27.11s-.11.17-.11.27.04.2.11.27.16.11.27.11h0Z"/>
      <path class="cls-1" d="M281.73,182.27c.48.01.96-.04,1.43-.16.09-.02.18-.09.22-.17s.07-.2.04-.29-.09-.18-.17-.22-.19-.06-.29-.04c-.18.05-.37.08-.55.11h.1c-.26.02-.52.03-.78.03-.09,0-.2.04-.27.11s-.11.17-.11.27.04.2.11.27.16.11.27.11h0Z"/>
      <path class="cls-1" d="M282.19,185.89c.22-.03.44-.06.67-.09.05-.01.09-.03.13-.07.04-.03.07-.06.1-.11.03-.04.04-.09.04-.14.01-.05,0-.1,0-.15l-.04-.09c-.03-.06-.08-.1-.13-.13l-.09-.04c-.07-.02-.13-.02-.2,0-.22.03-.44.06-.67.09-.05.01-.09.03-.13.07-.04.03-.07.06-.1.11-.03.04-.04.09-.04.14-.01.05,0,.1,0,.15l.04.09c.03.06.08.1.13.13l.09.04c.07.02.13.02.2,0h0Z"/>
      <path class="cls-1" d="M282.46,189.05h.66c.05,0,.1,0,.14-.03.05-.02.09-.04.12-.08.04-.03.06-.07.08-.12.02-.04.03-.09.03-.14v-.1c-.03-.06-.06-.12-.11-.17l-.08-.06c-.06-.03-.12-.05-.19-.05h-.66c-.05,0-.1,0-.14.03-.05.02-.09.04-.12.08-.04.03-.06.07-.08.12-.02.04-.03.09-.03.14v.1c.03.06.06.12.11.17l.08.06c.06.03.12.05.19.05h0Z"/>
      <path class="cls-1" d="M283.13,191.97c.17-.01.34-.04.5-.1s.32-.13.46-.22c.04-.02.08-.06.11-.1.03-.04.06-.08.07-.13.02-.05.02-.1,0-.15,0-.05-.02-.1-.04-.14-.05-.08-.13-.15-.22-.17h-.1c-.07-.01-.13,0-.19.04-.09.06-.18.11-.27.15l.09-.04c-.13.06-.28.09-.42.11h.1s-.05,0-.08,0c-.05,0-.1,0-.14.03-.05.02-.09.04-.12.08-.04.03-.06.07-.08.12-.02.04-.03.09-.03.14v.1c.03.06.06.12.11.17l.08.06c.06.03.12.05.19.05h0Z"/>
      <path class="cls-1" d="M284.2,195.38c.21-.12.42-.25.63-.37.04-.02.08-.06.11-.1.03-.04.06-.08.07-.13.02-.05.02-.1,0-.15,0-.05-.02-.1-.04-.14l-.06-.08s-.1-.08-.17-.1h-.1c-.07-.01-.13,0-.19.04-.21.12-.42.25-.63.37-.04.02-.08.06-.11.1-.03.04-.06.08-.07.13-.02.05-.02.1,0,.15,0,.05.02.1.04.14l.06.08s.1.08.17.1h.1c.07.01.13,0,.19-.04h0Z"/>
      <path class="cls-1" d="M285.93,198.8c.26-.16.52-.32.78-.48.04-.02.08-.06.11-.1.03-.04.06-.08.07-.13.02-.05.02-.1,0-.15,0-.05-.02-.1-.04-.14-.05-.08-.13-.15-.22-.17h-.1c-.07-.01-.13,0-.19.04-.26.16-.52.32-.78.48-.04.02-.08.06-.11.1-.03.04-.06.08-.07.13-.02.05-.02.1,0,.15,0,.05.02.1.04.14.05.08.13.15.22.17h.1c.07.01.13,0,.19-.04h0Z"/>
      <path class="cls-1" d="M286.86,201.86c.22-.09.43-.22.62-.36.08-.06.16-.12.23-.18.04-.03.06-.07.08-.12.02-.04.03-.09.03-.14,0-.05,0-.1-.03-.14-.02-.05-.04-.09-.08-.12-.07-.07-.17-.11-.27-.11h-.1c-.06.03-.12.06-.17.11-.04.04-.09.07-.13.11l.08-.06c-.2.15-.41.28-.64.38-.04.02-.08.06-.11.1-.03.04-.06.08-.07.13-.02.05-.02.1,0,.15,0,.05.02.1.04.14.05.08.13.15.22.17h.1c.07.01.13,0,.19-.04h0Z"/>
      <path class="cls-1" d="M288.72,204.83c.2-.05.39-.12.58-.2.16-.07.31-.16.45-.27.1-.08.21-.16.3-.24.07-.06.11-.17.11-.27s-.04-.2-.11-.27-.17-.11-.27-.11-.19.04-.27.11c-.05.05-.11.1-.17.14l.08-.06c-.18.14-.37.25-.57.33l.09-.04c-.14.06-.28.1-.43.14-.09.02-.18.09-.22.17s-.07.2-.04.29.09.18.17.22c.09.05.19.06.29.04h0Z"/>
      <path class="cls-1" d="M291.52,207.92s.05-.08.08-.11l-.06.08c.1-.13.21-.25.33-.36.04-.03.06-.07.08-.12.02-.04.03-.09.03-.14,0-.05,0-.1-.03-.14-.02-.05-.04-.09-.08-.12l-.08-.06c-.06-.03-.12-.05-.19-.05h-.1c-.06.03-.12.06-.17.11-.13.12-.25.26-.36.4-.04.05-.08.1-.11.15-.03.04-.04.09-.04.14-.01.05,0,.1,0,.15.01.05.03.09.07.13.03.04.06.07.11.1l.09.04c.07.02.13.02.2,0l.09-.04c.06-.03.1-.08.13-.13h0Z"/>
      <path class="cls-1" d="M293.69,210.62c.16-.09.31-.2.46-.31.12-.1.24-.2.35-.31.06-.06.12-.13.17-.2.04-.03.06-.07.08-.12.02-.04.03-.09.03-.14,0-.05,0-.1-.03-.14-.02-.05-.04-.09-.08-.12-.07-.07-.17-.11-.27-.11h-.1c-.06.03-.12.06-.17.11-.15.19-.33.37-.52.52l.08-.06c-.12.09-.25.18-.38.25-.04.02-.08.06-.11.1-.03.04-.06.08-.07.13-.02.05-.02.1,0,.15,0,.05.02.1.04.14.05.08.13.15.22.17s.2.01.29-.04h0Z"/>
      <path class="cls-1" d="M295.89,213.03c.28-.21.55-.44.78-.7.06-.07.12-.14.18-.21.04-.03.06-.07.08-.12.02-.04.03-.09.03-.14,0-.05,0-.1-.03-.14-.02-.05-.04-.09-.08-.12-.07-.07-.17-.11-.27-.11h-.1c-.06.03-.12.06-.17.11-.18.23-.38.43-.61.62-.06.05-.13.11-.19.16l.08-.06s-.06.04-.09.07c-.04.02-.08.06-.11.1-.03.04-.06.08-.07.13-.02.05-.02.1,0,.15,0,.05.02.1.04.14.05.08.13.15.22.17h.1c.07.01.13,0,.19-.04h0Z"/>
      <path class="cls-1" d="M299.33,215.44c.13-.27.27-.54.4-.81.03-.04.04-.09.04-.14.01-.05,0-.1,0-.15-.01-.05-.03-.09-.07-.13-.03-.04-.06-.07-.11-.1-.09-.05-.19-.07-.29-.04-.09.03-.18.09-.22.17-.13.27-.27.54-.4.81-.03.04-.04.09-.04.14-.01.05,0,.1,0,.15.01.05.03.09.07.13.03.04.06.07.11.1.09.05.19.07.29.04.09-.03.18-.09.22-.17h0Z"/>
      <path class="cls-1" d="M302,217.36c.21-.38.42-.76.63-1.14.05-.09.06-.19.04-.29-.02-.09-.09-.18-.17-.22-.09-.05-.19-.07-.29-.04s-.18.09-.22.17c-.21.38-.42.76-.63,1.14-.05.09-.06.19-.04.29.02.09.09.18.17.22.09.05.19.07.29.04s.18-.09.22-.17h0Z"/>
      <path class="cls-1" d="M305.39,219.24c.2-.35.4-.7.6-1.05.05-.09.06-.19.04-.29-.01-.05-.03-.09-.07-.13-.03-.04-.06-.07-.11-.1-.09-.05-.19-.07-.29-.04s-.17.09-.22.17c-.2.35-.4.7-.6,1.05-.05.09-.06.19-.04.29.01.05.03.09.07.13.03.04.06.07.11.1.09.05.19.07.29.04s.17-.09.22-.17h0Z"/>
      <path class="cls-1" d="M309.75,220.3c-.01-.1-.01-.19,0-.29v.1c0-.1.03-.19.06-.28l-.04.09c.03-.06.06-.12.09-.18.03-.04.04-.09.04-.14.01-.05,0-.1,0-.15-.01-.05-.03-.09-.07-.13-.03-.04-.06-.07-.11-.1l-.09-.04c-.07-.02-.13-.02-.2,0l-.09.04c-.06.03-.1.08-.13.13-.04.06-.07.12-.09.18-.04.09-.07.17-.1.27s-.03.19-.04.29c0,.07,0,.13,0,.2,0,.05,0,.1.03.14.02.05.04.09.08.12.03.04.07.06.12.08.04.02.09.03.14.03h.1c.06-.03.12-.06.17-.11l.06-.08c.03-.06.05-.12.05-.19h0Z"/>
      <path class="cls-1" d="M313.36,221.52c.01-.31.03-.61.04-.92,0-.05,0-.1-.03-.14-.02-.05-.04-.09-.08-.12-.03-.04-.07-.06-.12-.08-.04-.02-.09-.03-.14-.03-.1,0-.2.04-.27.11l-.06.08c-.03.06-.05.12-.05.19-.01.31-.03.61-.04.92,0,.05,0,.1.03.14.02.05.04.09.08.12.03.04.07.06.12.08.04.02.09.03.14.03.1,0,.2-.04.27-.11l.06-.08c.03-.06.05-.12.05-.19h0Z"/>
      <path class="cls-1" d="M317.3,222.33v-.96c0-.1-.04-.2-.11-.27-.03-.04-.07-.06-.12-.08-.04-.02-.09-.03-.14-.03-.1,0-.2.04-.27.11s-.11.16-.11.27v.96c0,.1.04.2.11.27.03.04.07.06.12.08.04.02.09.03.14.03.1,0,.2-.04.27-.11s.11-.16.11-.27h0Z"/>
      <path class="cls-1" d="M321.18,222.4c-.02-.25,0-.49.02-.74v.1s0-.05,0-.07c.02-.05.02-.1,0-.15,0-.05-.02-.1-.04-.14-.02-.04-.06-.08-.1-.11-.04-.03-.08-.06-.13-.07h-.1c-.07-.01-.13,0-.19.04l-.08.06s-.08.1-.1.17c-.05.3-.07.61-.05.91,0,.05,0,.1.03.14.02.05.04.09.08.12.03.04.07.06.12.08.04.02.09.03.14.03h.1c.06-.03.12-.06.17-.11.06-.07.12-.17.11-.27h0Z"/>
      <path class="cls-1" d="M325.11,222.66l.05-.85c0-.05,0-.1-.03-.14-.02-.05-.04-.09-.08-.12-.03-.04-.07-.06-.12-.08-.04-.02-.09-.03-.14-.03-.1,0-.2.04-.27.11l-.06.08c-.03.06-.05.12-.05.19l-.05.85c0,.05,0,.1.03.14.02.05.04.09.08.12.03.04.07.06.12.08.04.02.09.03.14.03.1,0,.2-.04.27-.11l.06-.08c.03-.06.05-.12.05-.19h0Z"/>
      <path class="cls-1" d="M328.53,222.33c-.04-.26-.09-.51-.16-.77-.01-.05-.03-.09-.07-.13-.03-.04-.06-.07-.11-.1-.04-.03-.09-.04-.14-.04-.05-.01-.1,0-.15,0l-.09.04c-.06.03-.1.08-.13.13l-.04.09c-.02.07-.02.13,0,.2.06.25.12.51.16.77.01.05.03.09.07.13.03.04.06.07.11.1.04.03.09.04.14.04.05.01.1,0,.15,0l.09-.04c.06-.03.1-.08.13-.13l.04-.09c.02-.07.02-.13,0-.2h0Z"/>
      <path class="cls-1" d="M332.12,222.07c0-.17-.03-.34-.06-.51-.03-.14-.06-.27-.11-.4-.01-.05-.03-.09-.07-.13-.03-.04-.06-.07-.11-.1-.04-.03-.09-.04-.14-.04-.05-.01-.1,0-.15,0-.09.03-.18.09-.22.17l-.04.09c-.02.07-.02.13,0,.2.06.17.11.35.13.54v-.1c0,.09,0,.18,0,.27,0,.1.04.2.11.27.03.04.07.06.12.08.04.02.09.03.14.03h.1c.06-.03.12-.06.17-.11.07-.07.11-.16.11-.27h0Z"/>
      <path class="cls-1" d="M335.78,221.24c-.15-.13-.29-.27-.41-.42l.06.08c-.08-.11-.16-.22-.23-.34-.02-.04-.06-.08-.1-.11-.04-.03-.08-.06-.13-.07-.05-.02-.1-.02-.15,0-.05,0-.1.02-.14.04-.08.05-.15.13-.17.22v.1c-.01.07,0,.13.04.19.06.11.13.22.21.33.1.13.2.25.31.36.05.05.11.1.16.15.03.04.07.06.12.08.04.02.09.03.14.03.05,0,.1,0,.14-.03.05-.02.09-.04.12-.08.07-.07.11-.17.11-.27v-.1c-.03-.06-.06-.12-.11-.17h0Z"/>
      <path class="cls-1" d="M339.34,220.04l-.37-.41-.1-.11s-.07-.06-.12-.08c-.04-.02-.09-.03-.14-.03-.05,0-.1,0-.14.03-.05.02-.09.04-.12.08l-.06.08c-.03.06-.05.12-.05.19v.1c.03.06.06.12.11.17.12.14.25.27.37.41l.1.11s.07.06.12.08c.04.02.09.03.14.03.05,0,.1,0,.14-.03.05-.02.09-.04.12-.08l.06-.08c.03-.06.05-.12.05-.19v-.1c-.03-.06-.06-.12-.11-.17h0Z"/>
      <path class="cls-1" d="M349.53,215.86c-.03-.06-.06-.12-.1-.17-.05-.08-.11-.15-.17-.22-.04-.05-.09-.09-.14-.14-.07-.06-.15-.12-.23-.17-.09-.05-.19-.1-.28-.13-.05-.02-.1-.02-.15,0-.05,0-.1.02-.14.04-.04.02-.08.06-.11.1-.03.04-.06.08-.07.13v.1c-.01.07,0,.13.04.19l.06.08s.1.08.17.1c0,0,.02,0,.02.01l-.09-.04c.1.04.2.1.29.17l-.08-.06c.09.07.17.15.24.24l-.06-.08c.06.07.11.15.15.24.02.04.06.08.1.11.04.03.08.06.13.07.05.02.1.02.15,0,.05,0,.1-.02.14-.04l.08-.06s.08-.1.1-.17v-.1c.01-.07,0-.13-.04-.19h0Z"/>
      <path class="cls-1" d="M351.63,213.8l-.49-.46-.14-.13s-.07-.06-.12-.08c-.04-.02-.09-.03-.14-.03-.05,0-.1,0-.14.03-.05.02-.09.04-.12.08l-.06.08c-.03.06-.05.12-.05.19v.1c.03.06.06.12.11.17.16.15.33.31.49.46l.14.13s.07.06.12.08c.04.02.09.03.14.03.05,0,.1,0,.14-.03.05-.02.09-.04.12-.08l.06-.08c.03-.06.05-.12.05-.19v-.1c-.03-.06-.06-.12-.11-.17h0Z"/>
      <path class="cls-1" d="M353.82,211.93c-.11-.16-.24-.31-.39-.44-.06-.05-.12-.1-.18-.14-.04-.03-.09-.04-.14-.04-.05-.01-.1,0-.15,0-.05.01-.09.03-.13.07-.04.03-.07.06-.1.11l-.04.09c-.02.07-.02.13,0,.2l.04.09c.03.06.08.1.13.13.02.01.04.03.05.04l-.08-.06c.12.1.24.21.33.33l-.06-.08s.04.05.05.07c.02.04.06.08.1.11.04.03.08.06.13.07.05.02.1.02.15,0,.05,0,.1-.02.14-.04l.08-.06s.08-.1.1-.17v-.1c.01-.07,0-.13-.04-.19h0Z"/>
      <path class="cls-1" d="M356.05,209.93c-.32-.25-.63-.5-.95-.75-.03-.04-.07-.06-.12-.08-.04-.02-.09-.03-.14-.03-.05,0-.1,0-.14.03-.05.02-.09.04-.12.08-.07.07-.11.17-.11.27v.1c.03.06.06.12.11.17.32.25.63.5.95.75.03.04.07.06.12.08.04.02.09.03.14.03.05,0,.1,0,.14-.03.05-.02.09-.04.12-.08.07-.07.11-.17.11-.27v-.1c-.03-.06-.06-.12-.11-.17h0Z"/>
      <path class="cls-1" d="M357.79,207.31s-.04-.02-.06-.02l.09.04c-.1-.04-.2-.1-.29-.17l.08.06c-.06-.05-.12-.1-.18-.16-.03-.04-.07-.06-.12-.08-.04-.02-.09-.03-.14-.03-.05,0-.1,0-.14.03-.05.02-.09.04-.12.08l-.06.08c-.03.06-.05.12-.05.19v.1c.03.06.06.12.11.17.08.09.17.16.26.23.07.05.14.1.22.13.07.03.14.07.22.09.05.02.1.02.15,0,.05,0,.1-.02.14-.04.04-.02.08-.06.11-.1.03-.04.06-.08.07-.13v-.1c.01-.07,0-.13-.04-.19l-.06-.08s-.1-.08-.17-.1h0Z"/>
      <path class="cls-1" d="M359.97,204.69s-.05-.09-.08-.13c-.05-.06-.1-.13-.16-.18s-.12-.1-.19-.14-.14-.07-.22-.1c-.05-.02-.11-.04-.16-.04-.05-.02-.1-.02-.15,0-.05,0-.1.02-.14.04-.04.02-.08.06-.11.1-.03.04-.06.08-.07.13v.1c-.01.07,0,.13.04.19l.06.08s.1.08.17.1c.06,0,.12.03.18.05l-.09-.04c.06.03.12.06.18.1l-.08-.06c.05.04.1.09.14.14l-.06-.08s.06.08.08.13c.02.04.06.08.1.11.04.03.08.06.13.07.05.02.1.02.15,0,.05,0,.1-.02.14-.04l.08-.06s.08-.1.1-.17v-.1c.01-.07,0-.13-.04-.19h0Z"/>
      <path class="cls-1" d="M361.61,201.11c-.13-.06-.27-.13-.4-.19-.04-.03-.09-.04-.14-.04-.05-.01-.1,0-.15,0-.05.01-.09.03-.13.07-.04.03-.07.06-.1.11l-.04.09c-.02.07-.02.13,0,.2l.04.09c.03.06.08.1.13.13.13.06.27.13.4.19.04.03.09.04.14.04.05.01.1,0,.15,0,.05-.01.09-.03.13-.07.04-.03.07-.06.1-.11l.04-.09c.02-.07.02-.13,0-.2l-.04-.09c-.03-.06-.08-.1-.13-.13h0Z"/>
      <path class="cls-1" d="M363.18,197.9c-.23-.07-.47-.15-.7-.22-.05-.02-.1-.02-.15,0-.05,0-.1.02-.14.04-.04.02-.08.06-.11.1-.03.04-.06.08-.07.13v.1c-.01.07,0,.13.04.19l.06.08s.1.08.17.1c.23.07.47.15.7.22.05.02.1.02.15,0,.05,0,.1-.02.14-.04.04-.02.08-.06.11-.1.03-.04.06-.08.07-.13v-.1c.01-.07,0-.13-.04-.19l-.06-.08s-.1-.08-.17-.1h0Z"/>
      <path class="cls-1" d="M364.54,193.86c-.33-.11-.66-.23-.99-.34-.05-.02-.1-.02-.15,0-.05,0-.1.02-.14.04-.04.02-.08.06-.11.1-.03.04-.06.08-.07.13-.02.1-.02.2.04.29l.06.08s.1.08.17.1c.33.11.66.23.99.34.05.02.1.02.15,0,.05,0,.1-.02.14-.04.04-.02.08-.06.11-.1.03-.04.06-.08.07-.13.02-.1.02-.2-.04-.29l-.06-.08s-.1-.08-.17-.1h0Z"/>
      <path class="cls-1" d="M364.74,189.44h-.77c-.05,0-.1,0-.14.03-.05.02-.09.04-.12.08-.04.03-.06.07-.08.12-.02.04-.03.09-.03.14v.1c.03.06.06.12.11.17.07.07.16.11.27.11h.77c.05,0,.1,0,.14-.03.05-.02.09-.04.12-.08.04-.03.06-.07.08-.12.02-.04.03-.09.03-.14v-.1c-.03-.06-.06-.12-.11-.17-.07-.07-.16-.11-.27-.11h0Z"/>
      <path class="cls-1" d="M365.18,185.2c-.23,0-.47,0-.7,0-.05,0-.1,0-.14.03-.05.02-.09.04-.12.08-.04.03-.06.07-.08.12-.02.04-.03.09-.03.14v.1c.03.06.06.12.11.17l.08.06c.06.03.12.05.19.05.23,0,.47,0,.7,0,.05,0,.1,0,.14-.03.05-.02.09-.04.12-.08.04-.03.06-.07.08-.12.02-.04.03-.09.03-.14v-.1c-.03-.06-.06-.12-.11-.17l-.08-.06c-.06-.03-.12-.05-.19-.05h0Z"/>
      <path class="cls-1" d="M365.14,181.33c-.11,0-.21,0-.32,0-.14.02-.27.04-.41.08-.05.01-.09.03-.13.07-.04.03-.07.06-.1.11-.03.04-.04.09-.04.14-.01.05,0,.1,0,.15l.04.09c.03.06.08.1.13.13l.09.04c.07.02.13.02.2,0,.09-.03.19-.05.28-.06h-.1c.11,0,.23,0,.34,0,.05,0,.1,0,.14-.03.05-.02.09-.04.12-.08.04-.03.06-.07.08-.12.02-.04.03-.09.03-.14v-.1c-.03-.06-.06-.12-.11-.17l-.08-.06c-.06-.03-.12-.05-.19-.05h0Z"/>
      <path class="cls-1" d="M364.46,177.77c-.25.11-.51.19-.78.25-.05.01-.09.03-.13.07-.04.03-.07.06-.1.11-.03.04-.04.09-.04.14-.01.05,0,.1,0,.15l.04.09c.03.06.08.1.13.13l.09.04c.07.02.13.02.2,0,.27-.06.53-.14.78-.25.05-.01.09-.03.13-.07.04-.03.07-.06.1-.11.03-.04.04-.09.04-.14.01-.05,0-.1,0-.15l-.04-.09c-.03-.06-.08-.1-.13-.13l-.09-.04c-.07-.02-.13-.02-.2,0h0Z"/>
      <path class="cls-1" d="M363.9,174.37l-.52.08s-.09.03-.13.07c-.04.03-.07.06-.1.11-.03.04-.04.09-.04.14-.01.05,0,.1,0,.15l.04.09c.03.06.08.1.13.13l.09.04c.07.02.13.02.2,0l.52-.08s.09-.03.13-.07c.04-.03.07-.06.1-.11.03-.04.04-.09.04-.14.01-.05,0-.1,0-.15l-.04-.09c-.03-.06-.08-.1-.13-.13l-.09-.04c-.07-.02-.13-.02-.2,0h0Z"/>
      <path class="cls-1" d="M363.11,171.24c-.23.1-.47.2-.7.3-.04.02-.08.06-.11.1-.03.04-.06.08-.07.13-.02.05-.02.1,0,.15,0,.05.02.1.04.14l.06.08s.1.08.17.1h.1c.07.01.13,0,.19-.04.23-.1.47-.2.7-.3.04-.02.08-.06.11-.1.03-.04.06-.08.07-.13.02-.05.02-.1,0-.15,0-.05-.02-.1-.04-.14l-.06-.08s-.1-.08-.17-.1h-.1c-.07-.01-.13,0-.19.04h0Z"/>
      <path class="cls-1" d="M362.13,168.12c-.18.05-.37.1-.55.15-.05.01-.09.03-.13.07-.04.03-.07.06-.1.11-.03.04-.04.09-.04.14-.01.05,0,.1,0,.15l.04.09c.03.06.08.1.13.13l.09.04c.07.02.13.02.2,0,.18-.05.37-.1.55-.15.05-.01.09-.03.13-.07.04-.03.07-.06.1-.11.03-.04.04-.09.04-.14.01-.05,0-.1,0-.15l-.04-.09c-.03-.06-.08-.1-.13-.13l-.09-.04c-.07-.02-.13-.02-.2,0h0Z"/>
      <path class="cls-1" d="M360.14,164.86h0s.04-.05.06-.07c-.04.05-.08.09-.13.13l.08-.06c-.05.04-.11.07-.17.1l.09-.04s-.02,0-.04.01c-.05.01-.09.03-.13.07-.04.03-.07.06-.1.11-.03.04-.04.09-.04.14-.01.05,0,.1,0,.15l.04.09c.03.06.08.1.13.13l.09.04c.07.02.13.02.2,0,.04-.02.08-.03.13-.05.01,0,.03-.01.04-.02.03-.01.05-.03.07-.04.05-.03.1-.07.14-.11.02-.02.04-.04.06-.06.04-.04.08-.1.12-.15.03-.04.04-.09.04-.14.01-.05,0-.1,0-.15-.01-.05-.03-.09-.07-.13-.03-.04-.06-.07-.11-.1l-.09-.04c-.07-.02-.13-.02-.2,0l-.09.04c-.06.03-.1.08-.13.13h0Z"/>
      <path class="cls-1" d="M358.76,161.67c-.17.08-.35.17-.52.25-.04.02-.08.06-.11.1-.03.04-.06.08-.07.13-.02.05-.02.1,0,.15,0,.05.02.1.04.14l.06.08s.1.08.17.1h.1c.07.01.13,0,.19-.04.17-.08.35-.17.52-.25.04-.02.08-.06.11-.1.03-.04.06-.08.07-.13.02-.05.02-.1,0-.15,0-.05-.02-.1-.04-.14l-.06-.08s-.1-.08-.17-.1h-.1c-.07-.01-.13,0-.19.04h0Z"/>
      <path class="cls-1" d="M356.43,158.76s-.02.07-.03.1l.04-.09s-.04.09-.08.13l.06-.08s-.07.07-.11.11l.08-.06s-.07.05-.1.06c-.04.02-.08.06-.11.1-.03.04-.06.08-.07.13-.02.05-.02.1,0,.15,0,.05.02.1.04.14l.06.08s.1.08.17.1h.1c.07.01.13,0,.19-.04.03-.02.06-.03.09-.05.04-.03.08-.06.11-.09.01-.01.03-.02.04-.04s.02-.03.03-.04c.03-.04.06-.08.09-.12.02-.03.04-.06.05-.09.03-.06.06-.13.07-.2.02-.05.02-.1,0-.15,0-.05-.02-.1-.04-.14-.02-.04-.06-.08-.1-.11-.04-.03-.08-.06-.13-.07h-.1c-.07-.01-.13,0-.19.04l-.08.06s-.08.1-.1.17h0Z"/>
      <path class="cls-1" d="M354.8,156.05s-.06.02-.09.03c-.06.02-.12.05-.17.07-.08.04-.16.1-.23.16-.03.02-.05.04-.08.07-.04.03-.06.07-.08.12-.02.04-.03.09-.03.14,0,.05,0,.1.03.14.02.05.04.09.08.12l.08.06c.06.03.12.05.19.05h.1c.06-.03.12-.06.17-.11.03-.03.05-.05.08-.07l-.08.06c.06-.04.12-.08.19-.11l-.09.04s.09-.03.13-.04c.05-.01.09-.03.13-.07.04-.03.07-.06.1-.11.03-.04.04-.09.04-.14.01-.05,0-.1,0-.15l-.04-.09c-.03-.06-.08-.1-.13-.13l-.09-.04c-.07-.02-.13-.02-.2,0h0Z"/>
      <path class="cls-1" d="M352.72,153.73c-.11.12-.21.25-.32.37l-.09.11s-.06.07-.08.12c-.02.04-.03.09-.03.14,0,.05,0,.1.03.14.02.05.04.09.08.12l.08.06c.06.03.12.05.19.05h.1c.06-.03.12-.06.17-.11.11-.12.21-.25.32-.37l.09-.11s.06-.07.08-.12c.02-.04.03-.09.03-.14,0-.05,0-.1-.03-.14-.02-.05-.04-.09-.08-.12l-.08-.06c-.06-.03-.12-.05-.19-.05h-.1c-.06.03-.12.06-.17.11h0Z"/>
      <path class="cls-1" d="M350.55,151.4s-.03,0-.05,0c-.05,0-.09,0-.14.02-.01,0-.03,0-.04.01-.04.02-.09.03-.13.05-.01,0-.03.01-.04.02-.03.02-.06.05-.09.07,0,0-.01.01-.02.02-.01.01-.02.02-.03.03-.03.03-.06.07-.08.11-.03.04-.04.09-.04.14-.01.05,0,.1,0,.15.01.05.03.09.07.13.03.04.06.07.11.1l.09.04c.07.02.13.02.2,0l.09-.04c.06-.03.1-.08.13-.13,0-.01.02-.03.02-.04l-.06.08s.03-.04.05-.05l-.08.06s.05-.03.07-.04l-.09.04s.05-.02.08-.02h-.1s.05.01.07.01c.05,0,.1,0,.14-.03.05-.02.09-.04.12-.08.04-.03.06-.07.08-.12.02-.04.03-.09.03-.14v-.1c-.03-.06-.06-.12-.11-.17l-.08-.06c-.06-.03-.12-.05-.19-.05h0Z"/>
      <path class="cls-1" d="M348.02,149.37c-.2.14-.39.3-.54.49-.06.07-.11.14-.16.22-.03.04-.04.09-.04.14-.01.05,0,.1,0,.15.01.05.03.09.07.13.03.04.06.07.11.1l.09.04c.07.02.13.02.2,0l.09-.04c.06-.03.1-.08.13-.13.03-.04.05-.08.08-.12l-.06.08c.11-.15.24-.28.39-.39l-.08.06s.06-.05.1-.07c.04-.02.08-.06.11-.1.03-.04.06-.08.07-.13.02-.05.02-.1,0-.15,0-.05-.02-.1-.04-.14l-.06-.08s-.1-.08-.17-.1h-.1c-.07-.01-.13,0-.19.04h0Z"/>
      <path class="cls-1" d="M345.56,147.61l-.25.15s-.08.06-.11.1c-.03.04-.06.08-.07.13-.02.05-.02.1,0,.15,0,.05.02.1.04.14l.06.08s.1.08.17.1h.1c.07.01.13,0,.19-.04l.25-.15s.08-.06.11-.1c.03-.04.06-.08.07-.13.02-.05.02-.1,0-.15,0-.05-.02-.1-.04-.14l-.06-.08s-.1-.08-.17-.1h-.1c-.07-.01-.13,0-.19.04h0Z"/>
      <path class="cls-1" d="M342.25,145.8l-.15.15s-.06.07-.08.12c-.02.04-.03.09-.03.14,0,.05,0,.1.03.14.02.05.04.09.08.12l.08.06c.06.03.12.05.19.05h.1c.06-.03.12-.06.17-.11l.15-.15s.06-.07.08-.12c.02-.04.03-.09.03-.14,0-.05,0-.1-.03-.14-.02-.05-.04-.09-.08-.12l-.08-.06c-.06-.03-.12-.05-.19-.05h-.1c-.06.03-.12.06-.17.11h0Z"/>
      <path class="cls-1" d="M339.24,144.15l-.29.07s-.09.03-.13.07c-.04.03-.07.06-.1.11-.03.04-.04.09-.04.14-.01.05,0,.1,0,.15l.04.09c.03.06.08.1.13.13l.09.04c.07.02.13.02.2,0l.29-.07s.09-.03.13-.07c.04-.03.07-.06.1-.11.03-.04.04-.09.04-.14.01-.05,0-.1,0-.15l-.04-.09c-.03-.06-.08-.1-.13-.13l-.09-.04c-.07-.02-.13-.02-.2,0h0Z"/>
      <path class="cls-1" d="M334.97,142.63l-.36.74s-.04.09-.04.14c-.01.05,0,.1,0,.15.01.05.03.09.07.13.03.04.06.07.11.1l.09.04c.07.02.13.02.2,0l.09-.04c.06-.03.1-.08.13-.13l.36-.74s.04-.09.04-.14c.01-.05,0-.1,0-.15-.01-.05-.03-.09-.07-.13-.03-.04-.06-.07-.11-.1l-.09-.04c-.07-.02-.13-.02-.2,0l-.09.04c-.06.03-.1.08-.13.13h0Z"/>
      <path class="cls-1" d="M330.9,141.31c-.1.11-.19.23-.29.34l-.08.1s-.06.07-.08.12c-.02.04-.03.09-.03.14,0,.05,0,.1.03.14.02.05.04.09.08.12l.08.06c.06.03.12.05.19.05h.1c.06-.03.12-.06.17-.11l.29-.34.08-.1s.06-.07.08-.12c.02-.04.03-.09.03-.14,0-.05,0-.1-.03-.14-.02-.05-.04-.09-.08-.12l-.08-.06c-.06-.03-.12-.05-.19-.05h-.1c-.06.03-.12.06-.17.11h0Z"/>
      <path class="cls-1" d="M327.7,140.65c-.1.44-.2.88-.29,1.33-.02.1-.01.2.04.29.05.08.13.15.22.17.1.02.2.02.29-.04.08-.05.15-.13.17-.22.1-.44.2-.88.29-1.33.02-.1.01-.2-.04-.29-.05-.08-.13-.15-.22-.17-.1-.02-.2-.02-.29.04-.08.05-.15.13-.17.22h0Z"/>
      <path class="cls-1" d="M322.35,140.19s-.06.09-.08.14c-.03.08-.07.15-.09.23s-.03.17-.04.25c0,.05,0,.11,0,.16,0,.05,0,.1.03.14.02.05.04.09.08.12.03.04.07.06.12.08.04.02.09.03.14.03h.1c.06-.03.12-.06.17-.11l.06-.08c.03-.06.05-.12.05-.19,0-.07,0-.15,0-.22v.1c0-.07.02-.15.05-.22l-.04.09c.02-.05.05-.1.08-.15.03-.04.04-.09.04-.14.01-.05,0-.1,0-.15-.01-.05-.03-.09-.07-.13-.03-.04-.06-.07-.11-.1l-.09-.04c-.07-.02-.13-.02-.2,0l-.09.04c-.06.03-.1.08-.13.13h0Z"/>
      <path class="cls-1" d="M318.25,140.68v.88c0,.05,0,.1.03.14.02.05.04.09.08.12.03.04.07.06.12.08.04.02.09.03.14.03.1,0,.2-.04.27-.11s.11-.16.11-.27v-.88c0-.05,0-.1-.03-.14-.02-.05-.04-.09-.08-.12-.03-.04-.07-.06-.12-.08-.04-.02-.09-.03-.14-.03-.1,0-.2.04-.27.11s-.11.16-.11.27h0Z"/>
      <path class="cls-1" d="M314.29,140.93c.06.39.13.79.19,1.18.01.05.03.09.07.13.03.04.06.07.11.1.08.05.2.07.29.04s.18-.09.22-.17l.04-.09c.02-.07.02-.13,0-.2-.06-.39-.13-.79-.19-1.18-.01-.05-.03-.09-.07-.13-.03-.04-.06-.07-.11-.1-.08-.05-.2-.07-.29-.04s-.18.09-.22.17l-.04.09c-.02.07-.02.13,0,.2h0Z"/>
      <path class="cls-1" d="M310.58,141.42v.44c0,.05,0,.1.03.14.02.05.04.09.08.12.03.04.07.06.12.08.04.02.09.03.14.03h.1c.06-.03.12-.06.17-.11l.06-.08c.03-.06.05-.12.05-.19v-.44c0-.05,0-.1-.03-.14-.02-.05-.04-.09-.08-.12-.03-.04-.07-.06-.12-.08-.04-.02-.09-.03-.14-.03h-.1c-.06.03-.12.06-.17.11l-.06.08c-.03.06-.05.12-.05.19h0Z"/>
      <path class="cls-1" d="M307.46,142.93l.07.15s.06.08.1.11c.04.03.08.06.13.07.05.02.1.02.15,0,.05,0,.1-.02.14-.04l.08-.06s.08-.1.1-.17v-.1c.01-.07,0-.13-.04-.19l-.07-.15s-.06-.08-.1-.11c-.04-.03-.08-.06-.13-.07-.05-.02-.1-.02-.15,0-.05,0-.1.02-.14.04l-.08.06s-.08.1-.1.17v.1c-.01.07,0,.13.04.19h0Z"/>
      <path class="cls-1" d="M303.91,143.88s.05.03.08.05l-.08-.06c.08.06.15.13.21.21l-.06-.08c.06.08.12.17.16.27l-.04-.09c.04.09.06.17.08.27.01.05.03.09.07.13.03.04.06.07.11.1.04.03.09.04.14.04.05.01.1,0,.15,0,.09-.03.18-.09.22-.17l.04-.09c.02-.07.02-.13,0-.2-.01-.07-.03-.13-.05-.19-.03-.09-.07-.18-.11-.26-.03-.06-.07-.11-.1-.16-.06-.08-.12-.15-.19-.22-.07-.07-.16-.14-.25-.19-.04-.03-.09-.04-.14-.04-.05-.01-.1,0-.15,0-.05.01-.09.03-.13.07-.04.03-.07.06-.1.11-.05.09-.07.19-.04.29l.04.09c.03.06.08.1.13.13h0Z"/>
      <path class="cls-1" d="M301.07,145.21c.08.29.16.59.25.88.03.09.09.18.17.22.04.03.09.04.14.04.05.01.1,0,.15,0,.09-.03.18-.09.22-.17s.07-.19.04-.29c-.08-.29-.16-.59-.25-.88-.03-.09-.09-.18-.17-.22-.04-.03-.09-.04-.14-.04-.05-.01-.1,0-.15,0-.09.03-.18.09-.22.17s-.07.19-.04.29h0Z"/>
      <path class="cls-1" d="M294.41,149.99c.17.07.32.16.46.27l-.08-.06c.12.1.24.21.34.33.03.04.07.06.12.08.04.02.09.03.14.03.05,0,.1,0,.14-.03.05-.02.09-.04.12-.08.07-.07.11-.17.11-.27v-.1c-.03-.06-.06-.12-.11-.17-.08-.1-.18-.2-.28-.28-.12-.1-.26-.2-.4-.28-.07-.04-.13-.07-.2-.1-.04-.03-.09-.04-.14-.04-.05-.01-.1,0-.15,0-.05.01-.09.03-.13.07-.04.03-.07.06-.1.11-.05.09-.07.19-.04.29l.04.09c.03.06.08.1.13.13h0Z"/>
      <path class="cls-1" d="M337.61,159.87c-.21.11-.42.23-.61.37-.25.18-.42.41-.59.67-.2.3-.31.62-.35.98-.03.32,0,.66.06.97.12.61.44,1.25.9,1.68.42.39.97.62,1.53.71s1.13.07,1.67-.07,1.08-.51,1.43-.95c.4-.49.61-1.07.65-1.7.02-.32,0-.66-.12-.96-.12-.32-.31-.59-.52-.86-.23-.28-.52-.49-.83-.68-.16-.1-.3-.2-.48-.27-.15-.06-.3-.1-.45-.14-.78-.18-1.58-.12-2.29.25-.18.09-.23.35-.13.51.11.18.33.23.51.13.48-.25,1.05-.31,1.57-.21.12.02.23.05.35.08.14.04.21.06.31.12.2.12.43.26.61.41.21.17.35.36.5.57.13.2.22.43.24.64.01.13.01.26,0,.4,0,.14-.02.22-.06.37-.03.11-.06.23-.1.33.02-.05-.03.07-.04.09-.03.06-.07.13-.1.19-.24.39-.57.67-1.01.87-.04.02-.04.02-.1.04-.05.02-.1.03-.16.04-.13.03-.21.04-.32.05-.22.02-.45.04-.67.03-.06,0-.11,0-.17-.01-.02,0-.15-.02-.08,0-.12-.02-.24-.04-.36-.07-.11-.03-.22-.06-.32-.11.05.02-.07-.03-.08-.04-.06-.03-.13-.07-.19-.1-.17-.1-.34-.26-.47-.43-.16-.21-.29-.46-.37-.69-.19-.53-.27-1.16,0-1.64.07-.13.16-.26.25-.38,0,0,.08-.11.04-.06-.03.03.02-.02.03-.03.02-.02.04-.03.05-.05.01-.01.02-.02.04-.03-.03.02-.03.02,0,0,.19-.15.41-.27.62-.38.18-.09.23-.34.13-.51-.11-.18-.33-.23-.51-.13Z"/>
      <path class="cls-1" d="M297.88,144.63c2.29,3.63,4.63,7.23,6.97,10.82,3.49,5.37,7,10.72,10.51,16.08,3.95,6.02,7.9,12.04,11.86,18.06,3.68,5.59,7.36,11.19,11.03,16.78,2.65,4.03,5.3,8.06,7.94,12.1.22.33.43.66.65.99.26.4.91.03.65-.38-2.46-3.78-4.94-7.54-7.41-11.31-3.58-5.44-7.16-10.88-10.73-16.33-3.96-6.02-7.92-12.04-11.87-18.07-3.62-5.52-7.23-11.03-10.83-16.56-2.52-3.87-5.05-7.74-7.53-11.65-.19-.31-.39-.61-.58-.92-.26-.41-.91-.03-.65.38h0Z"/>
      <path class="cls-1" d="M298.8,143.29c-.85.26-1.64.68-2.38,1.16-.33.21-.87.48-.98.9-.1.39.24.76.44,1.05,1.71,2.53,3.28,5.17,4.91,7.75,3.47,5.48,6.97,10.95,10.46,16.41,6.95,10.87,13.92,21.73,20.88,32.59,3.84,5.99,7.71,11.96,11.5,17.98.26.41.91.03.65-.38-6.6-10.48-13.35-20.86-20.03-31.28s-13.6-21.21-20.36-31.84c-1.86-2.92-3.72-5.85-5.56-8.79-.45-.71-.88-1.42-1.33-2.13-.16-.26-.34-.5-.51-.75-.05-.08-.3-.36-.29-.45.03-.23,1.08-.75,1.32-.87.47-.25.97-.48,1.48-.63.46-.14.26-.86-.2-.72h0Z"/>
      <path class="cls-1" d="M292.41,149.42c.25.38.59.73.88,1.09.62.75,1.25,1.49,1.87,2.23,1.66,1.98,3.33,3.95,5,5.92,1.19,1.41,2.39,2.8,3.55,4.23.05.06.09.13.14.18,0,0-.02-.03-.02-.02,0,0,.01.01.01.02-.03.07.18-.45.03-.4-.12.04-.29.27-.39.36-.22.2-.45.39-.67.58-.45.38-.9.76-1.37,1.12-.06.05-.15.09-.2.15-.01.01-.06.02-.06.04.06-.13.32.13.22-.07-.16-.35-.56-.69-.81-.98-1.91-2.19-3.78-4.41-5.66-6.62-.97-1.15-1.94-2.29-2.92-3.44-.44-.52-.88-1.05-1.34-1.56-.43-.47-.86-.93-1.15-1.51l-.13.51c1.02-.71,2.04-1.41,3.05-2.12.39-.27.02-.92-.38-.65-1.02.71-2.04,1.41-3.05,2.12-.18.12-.23.32-.13.51.5,1.01,1.41,1.8,2.13,2.65.9,1.06,1.8,2.13,2.7,3.19,1.77,2.08,3.53,4.16,5.31,6.23.43.5.86,1.01,1.3,1.5.24.27.43.65.74.84.42.27.85-.22,1.15-.46.52-.41,1.02-.83,1.52-1.27.24-.21.91-.62.8-1.01-.04-.15-.17-.27-.27-.38-.17-.22-.35-.43-.53-.64-.63-.76-1.27-1.51-1.91-2.27-1.75-2.07-3.5-4.14-5.24-6.21-1.17-1.39-2.36-2.76-3.49-4.18-.07-.09.03.06-.04-.05-.26-.4-.91-.03-.65.38h0Z"/>
      <path class="cls-1" d="M298.15,156.2s-.02.02-.03.03l.06-.08c-.23.29-.51.54-.8.78-.31.26-.63.52-.95.77-.18.15-.37.3-.55.45-.07.06-.11.18-.11.27,0,.09.04.2.11.27s.17.11.27.11c.1,0,.18-.04.27-.11.33-.27.66-.54.99-.81.31-.25.62-.49.92-.77.18-.16.33-.34.48-.53.05-.07.06-.21.04-.29s-.09-.18-.17-.22c-.09-.05-.19-.07-.29-.04s-.16.09-.22.17h0Z"/>
      <path class="cls-1" d="M365.71,235.27c1.93.27,3.86.54,5.8.75.46.05,1.14.24,1.23-.38.11-.75.07-1.56.09-2.32.14-3.99.25-7.99.36-11.99.15-5.26.29-10.53.42-15.79.11-4.2.21-8.39.29-12.59.02-.97.06-1.94.03-2.9-.01-.36-.08-.58-.49-.65-1.07-.18-2.25-.07-3.34-.06-.32,0-.64,0-.96,0-.17,0-.31.12-.36.28-.81,2.55-1.2,5.21-2.07,7.74-1.04,3.04-2.38,5.97-4,8.75s-3.48,5.45-5.74,7.75c-1.86,1.9-4.04,3.43-6.36,4.72-4.79,2.66-10.07,4.35-15.3,5.93-.58.18-1.17.35-1.76.53-.36.11-.57.15-.7.51-.25.65-.23,1.47-.27,2.15s-.14,1.41-.04,2.08c.06.4.3.47.65.55,1.96.44,3.97.7,5.96,1.01,3.58.57,7.16,1.11,10.74,1.64.47.07.68-.65.2-.72-5.24-.78-10.49-1.52-15.71-2.46-.27-.05-.54-.1-.81-.15-.07-.01-.42-.14-.48-.11.04-.02.15.28.19.2.03-.06-.01-.28-.01-.34,0-.38,0-.75.02-1.13.03-.75,0-1.61.22-2.33,0-.02.02-.11.03-.13.21-.27-.18.14.02.01.22-.14.62-.19.87-.26.62-.19,1.24-.37,1.87-.56,5.05-1.54,10.13-3.22,14.76-5.81,2.18-1.22,4.26-2.66,6.05-4.41,2.15-2.11,3.96-4.56,5.54-7.12,1.8-2.92,3.29-6.02,4.47-9.24,1.02-2.81,1.48-5.75,2.38-8.59l-.36.28c.92-.01,1.84-.02,2.77,0,.28,0,.56,0,.84.02.14,0,.5.09.63.03s-.28-.18-.19-.31c-.01.02,0,.07,0,.09-.05.25,0,.58,0,.83,0,.52-.01,1.04-.02,1.56-.06,3.86-.16,7.72-.25,11.58-.13,5.08-.26,10.16-.4,15.24-.12,4.2-.24,8.41-.37,12.61-.04,1.12-.07,2.23-.12,3.35,0,.13-.01.26-.02.39,0,.12-.02.15,0,.15-.03,0,.31-.32.32-.3-.01-.02-.12,0-.15,0-.17-.06-.42-.04-.6-.05-.73-.08-1.46-.17-2.19-.27-1.15-.15-2.3-.31-3.45-.46-.47-.06-.68.66-.2.72h0Z"/>
      <path class="cls-1" d="M376.97,231.34c.22-.43.1-1.19.12-1.65.05-1.35.09-2.69.13-4.04.13-4.32.26-8.63.37-12.95.13-4.89.26-9.78.38-14.67.09-3.55.18-7.11.23-10.67,0-.66.09-1.38,0-2.04-.03-.2-.07-.32-.28-.42-.27-.14-.62-.09-.92-.09-.52.01-1.04-.01-1.56-.01-.69,0-1.68-.27-2.27.19-.35.27-.53.73-.82,1.06-.37.41-.78.78-1.18,1.16-.88.83-1.77,1.66-2.67,2.47-.36.32.17.85.53.53.87-.79,1.73-1.58,2.58-2.39.38-.36.76-.71,1.12-1.09.14-.15.29-.31.41-.47.14-.19.26-.48.44-.63.31-.26.88-.1,1.25-.08.55.02,1.11,0,1.66.01.19,0,.37,0,.56,0,.07,0,.23.01.28,0,.19-.07.02.04.13-.09-.02.02,0-.23-.02-.14-.04.18,0,.45,0,.64,0,.43,0,.86-.01,1.29-.05,3.37-.13,6.73-.21,10.1-.11,4.7-.24,9.41-.37,14.11-.12,4.3-.24,8.6-.37,12.9-.05,1.48-.09,2.96-.14,4.44-.02.73-.13,1.49-.09,2.22,0,.17-.02.06.04-.06-.21.43.43.81.65.38h0Z"/>
      <path class="cls-1" d="M377.18,185.54c.03.09,0,0,0,0,.01,0-.01.06,0,0,0,.02-.01.04-.02.06.02-.06,0,0,0,0-.05.08-.1.16-.16.24-.05.07-.1.14-.15.21-.03.04-.05.07-.08.11,0,0-.05.06-.02.03s-.03.03-.03.04c-.22.29-.46.56-.71.82s-.51.51-.79.75c-.13.11-.27.23-.41.33-.06.04-.01.01,0,0-.02.01-.03.03-.05.04-.04.03-.07.05-.11.08-.08.06-.16.12-.24.17-.33.23-.68.45-1.04.64-.17.09-.24.35-.13.51s.33.24.51.13c1.36-.74,2.58-1.77,3.53-2.99.14-.19.29-.37.42-.57.16-.23.3-.52.2-.8-.07-.18-.26-.33-.46-.26-.18.06-.34.26-.26.46h0Z"/>
      <path class="cls-1" d="M376.35,230.85c-.04.08-.08.15-.13.22,0,0-.04.05,0,.01.03-.04-.02.02-.02.03-.03.04-.06.07-.1.11-.12.12-.25.23-.39.34-.29.23-.59.46-.87.71-.58.5-1.13,1.03-1.64,1.6-.29.32-.58.66-.85,1-.12.15-.16.38,0,.53.14.12.4.16.53,0,.96-1.22,2.07-2.3,3.3-3.25.33-.25.65-.53.83-.91.09-.18.05-.41-.13-.51-.17-.09-.42-.05-.51.13h0Z"/>
      <path class="cls-1" d="M365.9,219.22c.02,3.56-.08,7.13-.24,10.69-.06,1.37-.11,2.76-.29,4.12-.02.17-.05.34-.08.52-.03.16-.04.14-.05.17-.03.06-.24.29-.38.44-1.48,1.61-3.1,3.1-4.68,4.61-2.11,2.01-4.23,4.01-6.37,5.99-.92.86-1.85,1.72-2.78,2.57-.28.26-.57.52-.86.77-.08.07-.17.14-.24.21-.11.12-.08.06.03.01l.47.36c.06-2.5.12-4.99.19-7.49,0-.11.03-.26,0-.37,0-.04-.13.18-.02.12.12-.07.24-.33.32-.44.51-.69,1.01-1.38,1.52-2.07,3.71-5.06,7.41-10.12,11.01-15.25.77-1.09,1.53-2.18,2.26-3.3.28-.43.84-1.04.91-1.58.07-.47-.65-.68-.72-.2-.02.12.02-.02-.03.08s-.11.2-.17.3c-.17.29-.36.58-.54.86-.62.94-1.26,1.86-1.9,2.79-1.85,2.65-3.74,5.28-5.64,7.89s-3.61,4.98-5.43,7.46c-.58.79-1.16,1.58-1.74,2.37-.21.29-.54.6-.6.96-.07.46-.02.97-.04,1.43l-.07,2.68c-.03,1.25-.06,2.5-.09,3.76,0,.22.25.45.47.36.38-.15.73-.59,1.03-.85.76-.69,1.52-1.39,2.28-2.09,2.17-2.01,4.34-4.04,6.48-6.08,1.74-1.66,3.51-3.31,5.17-5.05.33-.35.76-.71.89-1.19.28-1.05.27-2.25.33-3.33.24-4.07.34-8.17.32-12.25,0-.48-.75-.48-.75,0Z"/>
      <path class="cls-1" d="M344.04,248.88c.2.11.43.15.65.2.36.08.73.14,1.09.2.93.16,1.87.29,2.8.43.45.07.91.13,1.36.2.2.03.4-.05.46-.26.05-.18-.06-.43-.26-.46-1.7-.25-3.42-.45-5.11-.79-.15-.03-.3-.06-.45-.1-.05-.01-.1-.03-.16-.04-.02,0-.04-.01-.06-.02-.03,0,.11.05.03.01-.18-.1-.41-.04-.51.13-.1.17-.04.42.13.51h0Z"/>
      <g>
        <path class="cls-1" d="M344.61,248.56c.06-2.5.12-5.01.18-7.51,0-.18.03-.38.01-.56-.02-.24.08-.06-.04.03.09-.07.17-.22.24-.31.48-.64.97-1.29,1.45-1.93,3.69-4.93,7.39-9.88,10.98-14.88.77-1.07,1.54-2.15,2.28-3.25.29-.43.87-1.06.95-1.61.07-.47-.65-.68-.72-.2-.02.13.03-.03-.03.08-.05.1-.11.2-.16.29-.18.3-.38.6-.57.89-.62.92-1.26,1.83-1.91,2.74-1.86,2.61-3.76,5.2-5.67,7.78-1.8,2.44-3.62,4.87-5.43,7.3-.54.72-1.08,1.45-1.63,2.17-.23.3-.45.51-.47.89-.13,2.69-.13,5.39-.19,8.08-.01.48.74.48.75,0h0Z"/>
        <path class="cls-1" d="M360.18,218.79c.75.1,1.5.18,2.25.27.49.06.98.12,1.47.18.24.03.48.06.72.09.05,0,.11.01.16.02-.09-.01.05,0,.07.01.1.01.21.03.31.04.34.05.68.09,1.01.17.47.11.67-.61.2-.72-.73-.18-1.49-.24-2.23-.34-.94-.12-1.88-.23-2.82-.34-.2-.02-.4-.05-.6-.07-.08,0-.16-.02-.25-.03-.03,0-.07,0-.1-.01-.04,0-.15-.02,0,0-.2-.03-.4.05-.46.26-.05.17.06.43.26.46h0Z"/>
      </g>
      <path class="cls-1" d="M377.24,222.92c.77-.93,1.58-1.82,2.37-2.73.33-.37.66-.75.98-1.13.17-.21.35-.39.41-.67.09-.41.1-.85.13-1.26.03-.52.04-1.05.05-1.57,0-.37.01-.75-.02-1.12-.02-.18-.04-.36-.21-.46-.16-.1-.34-.05-.5.01-.54.22-1.05.53-1.55.82-.57.34-1.13.68-1.68,1.05-.4.27-.02.92.38.65.9-.61,1.83-1.18,2.79-1.67.08-.04.16-.08.24-.12.03-.01.13-.05.03-.02.03-.01.07-.02.1-.03.04-.02.1,0-.03,0-.08,0-.29-.15-.32-.25.03.09,0-.1,0,.02.02.35.02.7.02,1.05,0,.49-.02.98-.04,1.46-.01.23-.02.46-.04.69,0,.09-.02.18-.03.28,0,.05-.01.09-.02.14,0,.06.01-.07,0-.02,0,.02,0,.04,0,.06,0,.06-.02.11-.03.17-.02.11.04-.03,0,.02-.03.03-.09.12-.02.03-.04.06-.09.11-.13.17-.29.35-.59.68-.88,1.02-.84.96-1.69,1.9-2.5,2.88-.13.16-.15.38,0,.53.13.13.4.16.53,0h0Z"/>
      <path class="cls-1" d="M380.88,213.92c-.37-.08-.75-.14-1.12-.21-.53-.09-1.06-.18-1.58-.28-.22-.04-.44-.08-.65-.12-.19-.04-.41.05-.46.26-.04.19.06.42.26.46.95.19,1.9.34,2.85.51.17.03.34.06.51.1.19.04.41-.06.46-.26.04-.19-.06-.42-.26-.46h0Z"/>
      <g>
        <path class="cls-1" d="M281.9,206.29c.02,3.14-.08,6.28-.27,9.41-.06.98-.06,2.03-.31,2.97,0,.03-.02.04,0,.02-.06.07-.12.14-.19.21-.19.21-.4.41-.61.61-3.45,3.34-7.1,6.49-10.71,9.65-.83.73-1.66,1.45-2.49,2.17-.25.22-.51.44-.77.66-.07.06-.16.12-.23.19s-.04.03.04,0l.47.36c-.02-.98-.04-1.95-.06-2.93l-.05-2.19c0-.39.1-1-.03-1.37-.08-.24.16.16-.1.15.02,0,.07-.08.08-.1.16-.14.29-.34.42-.51.54-.65,1.09-1.3,1.63-1.95,3.65-4.37,7.3-8.75,10.86-13.19.73-.9,1.45-1.81,2.15-2.73.27-.35.81-.87.89-1.33s-.64-.67-.72-.2c0,.04.04-.07-.02.04-.05.09-.11.17-.16.25-.16.24-.34.48-.52.71-.6.79-1.22,1.57-1.84,2.34-1.8,2.25-3.62,4.47-5.45,6.69s-3.59,4.34-5.4,6.51c-.6.71-1.19,1.43-1.79,2.14-.22.26-.5.52-.68.81-.19.3-.1.73-.09,1.07l.05,2.24c.03,1.18.05,2.36.08,3.54,0,.22.24.45.47.36.34-.13.65-.49.92-.72.69-.59,1.38-1.19,2.06-1.79,2.01-1.75,4-3.52,5.99-5.3,1.75-1.57,3.51-3.14,5.21-4.76.39-.37.88-.75,1.18-1.21.36-.56.32-1.47.37-2.1.3-3.56.38-7.16.36-10.73,0-.48-.75-.48-.75,0Z"/>
        <path class="cls-1" d="M260.71,231.75c.19.11.42.15.63.19.34.08.69.14,1.04.2.9.15,1.79.29,2.69.42.43.06.87.13,1.3.19.2.03.4-.05.46-.26.05-.18-.06-.43-.26-.46-1.63-.24-3.27-.44-4.89-.78-.14-.03-.29-.06-.43-.1-.05-.01-.1-.03-.15-.05-.01,0-.04-.02-.05-.02.06,0,.1.05.04.01-.42-.24-.8.41-.38.65h0Z"/>
        <g>
          <path class="cls-1" d="M261.28,231.43c.01-.97.03-1.94.04-2.91.02-1.21.14-2.47.05-3.68-.03-.45.01.09-.11.04,0,0,.05-.06.06-.07.14-.1.27-.3.38-.43.54-.61,1.08-1.23,1.62-1.84,3.72-4.22,7.44-8.44,11.08-12.73.75-.88,1.5-1.76,2.22-2.67.28-.36.84-.86.94-1.33s-.63-.67-.72-.2c0-.04.03-.05-.03.04-.05.08-.1.16-.16.23-.17.24-.35.47-.54.69-.61.77-1.25,1.52-1.88,2.27-1.86,2.2-3.75,4.38-5.65,6.55s-3.66,4.18-5.49,6.26c-.59.67-1.17,1.33-1.76,1.99-.22.25-.62.57-.71.9s-.02.74-.02,1.07l-.03,2.33c-.02,1.16-.03,2.32-.05,3.47,0,.48.74.48.75,0h0Z"/>
          <path class="cls-1" d="M277.21,206.08c1.4.17,2.81.28,4.21.46.04,0,.09.01.13.02.02,0,.05,0,.07,0,.07,0-.09-.01-.01,0s.15.02.23.03c.12.02.23.04.35.06.2.04.41-.06.46-.26.05-.19-.06-.42-.26-.46-.62-.13-1.27-.18-1.91-.25-.8-.09-1.6-.17-2.4-.25-.29-.03-.57-.06-.86-.09-.2-.02-.38.19-.38.38,0,.22.17.35.38.38h0Z"/>
        </g>
      </g>
      <path class="cls-1" d="M273.31,210.42c.08-8.3.23-16.61.3-24.91.02-2.33.03-4.66.03-6.99l-.28.36c-.13.03.1.01.16.02.16.01.31.03.47.05.46.05.91.11,1.36.17.73.1,1.46.19,2.18.33l-.28-.36c-.92,7.82,1.09,16.02,4.57,23,2.61,5.23,6.25,10.07,10.87,13.68,1.69,1.32,3.5,2.48,5.42,3.41.28.14.57.27.86.4.09.04.52.28.41.09.14.23.06.78.06,1.04,0,1.11-.02,2.21.04,3.32l.47-.36c-2.45-.41-4.89-.93-7.33-1.41-3.99-.79-7.98-1.58-11.97-2.38-.47-.09-.67.63-.2.72,3.99.8,7.98,1.59,11.97,2.38,2.44.48,4.88,1,7.33,1.41.22.04.49-.1.47-.36-.06-1-.04-2-.04-3,0-.47.12-1.28-.15-1.7-.18-.27-.58-.34-.86-.47-.51-.23-1.02-.48-1.52-.74-.86-.45-1.7-.95-2.51-1.48-2.99-1.98-5.61-4.5-7.84-7.3-3.58-4.49-6.23-9.75-7.82-15.27-1.4-4.83-2.08-9.96-1.49-14.98.02-.15-.13-.33-.28-.36-.81-.16-1.63-.25-2.45-.37-.47-.06-.93-.13-1.4-.18-.23-.02-.5-.09-.73-.02-.16.04-.28.2-.28.36,0,8.27-.14,16.55-.25,24.82-.03,2.36-.06,4.72-.08,7.08,0,.48.75.48.75,0h0Z"/>
      <path class="cls-1" d="M273.73,178.81c1.73-.94,3.51-1.78,5.34-2.53.19-.08.32-.25.26-.46-.05-.18-.27-.34-.46-.26-1.88.77-3.73,1.63-5.51,2.6-.18.1-.23.34-.13.51.11.18.33.23.51.13h0Z"/>
      <path class="cls-1" d="M277.81,179.39c.13-.02.26-.05.38-.09.15-.05.3-.11.44-.19.04-.02.08-.06.11-.1.03-.04.06-.08.07-.13.02-.05.02-.1,0-.15,0-.05-.02-.1-.04-.14l-.06-.08s-.1-.08-.17-.1h-.1c-.07-.01-.13,0-.19.04-.06.03-.12.06-.18.09l.09-.04c-.18.07-.36.13-.55.16-.05.01-.09.03-.13.07-.04.03-.07.06-.1.11-.03.04-.04.09-.04.14-.01.05,0,.1,0,.15l.04.09c.03.06.08.1.13.13l.09.04c.07.02.13.02.2,0h0Z"/>
      <path class="cls-1" d="M299.71,224.33c.36.08.7-.05.99-.26.26-.2.51-.42.77-.63.02-.01.04-.03.06-.04,0,0-.04.03,0,0,.03-.02.06-.04.08-.06.07-.05.13-.1.2-.15.13-.09.26-.18.39-.27.26-.17.53-.34.8-.49.31-.18.64-.34.97-.49.18-.08.24-.35.13-.51-.12-.18-.32-.22-.51-.13-1.12.51-2.16,1.18-3.09,1.98-.06.05-.13.11-.19.16.05-.04-.03.02-.04.03-.03.02-.06.04-.1.06s-.07.04-.1.05c-.04.02.01,0,.02,0-.02,0-.04.01-.06.02,0,0-.05.02-.06.01.02,0,.06,0,0,0-.01,0-.03,0-.05,0-.05,0,.08.02,0,0-.19-.04-.41.06-.46.26-.04.19.06.42.26.46h0Z"/>
    </g>
  </g>
</svg>