<?xml version="1.0" encoding="UTF-8"?>
<svg id="Calque_1" data-name="Calque 1" xmlns="http://www.w3.org/2000/svg" viewBox="0 0 1200 567.02">
  <defs>
    <style>
      .cls-1 {
        fill: #eb5e93;
      }
    </style>
  </defs>
  <path d="M1028.15,271.58c-12.47,12.47-28.33,18.7-47.59,18.7s-35.12-6.24-47.59-18.7c-12.47-12.47-18.7-28.33-18.7-47.59s6.23-35.12,18.7-47.59c12.47-12.47,28.33-18.7,47.59-18.7s35.12,6.24,47.59,18.7c12.47,12.47,18.7,28.33,18.7,47.59s-6.23,35.12-18.7,47.59M910.95,338.11c20.84,11.37,44.04,17.05,69.61,17.05s48.77-5.68,69.61-17.05c20.84-11.36,37.25-27.07,49.25-47.12,12-20.05,17.99-42.38,17.99-67.01s-6-47.43-17.99-67.48c-12-20.05-28.41-35.75-49.25-47.12-20.84-11.37-44.04-17.05-69.61-17.05s-48.77,5.68-69.61,17.05c-20.83,11.37-37.25,27.07-49.25,47.12-12,20.05-17.99,42.54-17.99,67.48s6,46.96,17.99,67.01c12,20.05,28.41,35.75,49.25,47.12M693.12,274.18c0,25.89,5.84,44.67,17.52,56.35,11.68,11.68,30.46,17.52,56.35,17.52h68.66v-63.93h-72.93v-119.33h72.93v-62.98h-72.93V0h-.47l-69.14,63.45v210.73ZM483.58,338.11c20.84,11.37,44.04,17.05,69.61,17.05,27.15,0,51.62-6.39,73.4-19.18,21.78-12.79,38.2-30.07,49.25-51.85l-61.09-34.57c-4.74,12.63-12.55,22.57-23.44,29.83-10.89,7.26-23.6,10.89-38.12,10.89-19.26,0-35.12-6.24-47.59-18.7-12.47-12.47-18.7-28.33-18.7-47.59s6.23-35.12,18.7-47.59c12.47-12.47,28.33-18.7,47.59-18.7,14.52,0,27.39,3.79,38.59,11.36,11.21,7.58,19.02,17.68,23.44,30.31l61.09-35.04c-11.05-22.1-27.47-39.62-49.25-52.56-21.78-12.94-46.41-19.42-73.87-19.42-25.57,0-48.77,5.68-69.61,17.05-20.84,11.37-37.25,27.07-49.25,47.12-12,20.05-17.99,42.54-17.99,67.48s6,46.96,17.99,67.01c12,20.05,28.41,35.75,49.25,47.12M226.4,198.41c1.89-13.26,6.79-23.99,14.68-32.2,10.73-11.37,24.31-17.05,40.72-17.05,12.31,0,22.57,3.16,30.78,9.47,8.21,6.31,13.73,14.84,16.57,25.57,1.26,4.74,1.89,9.47,1.89,14.21h-104.65ZM152.53,224.93c0,24.94,5.53,47.27,16.57,67.01,11.05,19.73,26.76,35.2,47.12,46.41,20.36,11.21,43.8,16.81,70.32,16.81,23.04,0,44.67-4.89,64.87-14.68,20.2-9.79,36.62-23.2,49.25-40.25l-48.78-44.99c-6.63,14.21-14.76,24.94-24.39,32.2-9.63,7.26-22.49,10.89-38.59,10.89-18.94,0-34.25-5.37-45.93-16.1-9.47-8.52-15.15-20.68-17.05-36.46h177.58c1.26-9.16,1.89-17.84,1.89-26.04,0-24.94-5.13-47.04-15.39-66.3-10.26-19.26-24.86-34.25-43.8-44.99-18.94-10.73-40.72-16.1-65.35-16.1s-46.25,5.68-65.82,17.05c-19.57,11.37-34.88,27.07-45.93,47.12-11.05,20.05-16.57,42.86-16.57,68.43M0,101.81v246.24h69.61v-154.85h75.77v-98.5h-.47l-75.29,65.35v-58.25H0Z"/>
  <path class="cls-1" d="M91.37,482.62c-12.47-12.47-18.7-28.33-18.7-47.59s6.23-35.12,18.7-47.59c12.47-12.47,28.33-18.7,47.59-18.7s35.12,6.24,47.59,18.7c12.47,12.47,18.7,28.33,18.7,47.59,0,19.26-6.24,35.12-18.7,47.59-12.47,12.47-28.33,18.7-47.59,18.7s-35.12-6.23-47.59-18.7M208.57,549.16c20.84-11.37,37.25-27.07,49.25-47.12,12-20.05,17.99-42.38,17.99-67.01,0-24.94-6-47.43-17.99-67.48-12-20.05-28.41-35.75-49.25-47.12-20.84-11.37-44.04-17.05-69.61-17.05-25.57,0-48.77,5.68-69.61,17.05-20.84,11.37-37.25,27.07-49.25,47.12-12,20.05-17.99,42.54-17.99,67.48,0,24.62,6,46.96,17.99,67.01,12,20.05,28.41,35.75,49.25,47.12,20.84,11.37,44.04,17.05,69.61,17.05s48.77-5.68,69.61-17.05M474.79,548.21c21.47-12,34.57-29.67,39.3-53.04l-65.35-27.94c-.95,16.42-6.47,28.1-16.57,35.04-10.1,6.94-22.73,10.42-37.88,10.42-9.79,0-18.23-2.05-25.33-6.15-7.1-4.1-10.65-9.47-10.65-16.1,0-7.89,4.26-13.65,12.79-17.29,8.52-3.63,21.94-7.02,40.25-10.18,19.89-3.79,36.31-7.81,49.25-12.08,12.94-4.26,24.07-11.6,33.38-22.02,9.31-10.42,13.97-24.78,13.97-43.09,0-15.47-4.81-29.52-14.44-42.15-9.63-12.63-22.57-22.49-38.83-29.6-16.26-7.1-33.86-10.65-52.8-10.65-30.62,0-56.04,6.24-76.24,18.7-20.2,12.47-32.99,29.6-38.36,51.38l65.35,24.15c.63-13.26,5.29-23.36,13.97-30.31,8.68-6.95,20.44-10.42,35.28-10.42,11.05,0,19.65,2.13,25.81,6.39,6.16,4.26,9.23,10.18,9.23,17.76,0,6.94-4.03,12-12.08,15.15-8.05,3.16-21.07,6.47-39.07,9.94-20.52,3.79-37.57,7.97-51.14,12.55-13.57,4.58-25.33,12.23-35.28,22.97-9.94,10.73-14.92,25.41-14.92,44.04,0,26.83,10.42,46.96,31.25,60.38,20.84,13.42,47.04,20.13,78.61,20.13,32.2,0,59.04-6,80.5-17.99M594.22,312.86v58.25s-75.29-65.35-75.29-65.35h-.47s0,98.5,0,98.5h75.77v154.85s69.61,0,69.61,0v-246.24s-69.61,0-69.61,0ZM762.56,409.46c0-4.74.63-9.47,1.89-14.21,2.84-10.73,8.37-19.26,16.57-25.57,8.21-6.31,18.47-9.47,30.78-9.47,16.42,0,29.99,5.68,40.72,17.05,7.89,8.21,12.79,18.94,14.68,32.2h-104.65ZM941.09,435.98c0-25.57-5.53-48.38-16.57-68.43-11.05-20.05-26.36-35.75-45.93-47.12-19.57-11.37-41.51-17.05-65.82-17.05-24.62,0-46.41,5.37-65.35,16.1-18.94,10.73-33.54,25.73-43.8,44.99-10.26,19.26-15.39,41.36-15.39,66.3,0,8.21.63,16.89,1.89,26.04h177.58c-1.89,15.78-7.58,27.94-17.05,36.46-11.68,10.73-26.99,16.1-45.93,16.1-16.1,0-28.97-3.63-38.59-10.89-9.63-7.26-17.76-18-24.39-32.2l-48.77,44.99c12.63,17.05,29.04,30.46,49.25,40.25,20.2,9.79,41.83,14.68,64.88,14.68,26.52,0,49.96-5.6,70.32-16.81,20.36-11.21,36.07-26.68,47.12-46.41,11.05-19.73,16.57-42.07,16.57-67.01M1123.02,312.86l-59.19,164.32-59.19-164.32h-74.35s97.07,246.24,97.07,246.24h72.93s99.44-246.24,99.44-246.24h-76.71Z"/>
</svg>